<?xml version="1.0" standalone="no"?>
<!DOCTYPE svg PUBLIC "-//W3C//DTD SVG 1.1//EN"
  "http://www.w3.org/Graphics/SVG/1.1/DTD/svg11.dtd">
<svg xmlns="http://www.w3.org/2000/svg" version="1.1" class="railroad-diagram" width="705" height="81" viewBox="0 0 705 81">
<defs><style type="text/css"><![CDATA[ svg.railroad-diagram {
  background-color: hsl(30,20%,95%);
}
svg.railroad-diagram path {
  stroke-width: 3;
  stroke: black;
  fill: none;
}
svg.railroad-diagram text {
  font: bold 14px monospace;
  text-anchor: middle;
  cursor: pointer;
}
svg.railroad-diagram text.label {
  text-anchor: start;
}
svg.railroad-diagram text.comment {
  font: italic 12px monospace;
}
svg.railroad-diagram rect {
  stroke-width: 3;
  stroke: black;
  fill: hsl(120,100%,90%);
}
 ]]></style></defs>
<g transform="translate(.5 .5)">
<path d="M 20 31 v 20 m 10 -20 v 20 m -10 -10 h 20.5"></path>
<g>
<path d="M40 41h0"></path>
<path d="M664 41h0"></path>
<path d="M40 41h10"></path>
<g>
<path d="M50 41h0"></path>
<path d="M238 41h0"></path>
<rect x="50" y="30" width="188" height="22"></rect>
<text x="144" y="45">&#95;ActionLabelQuoteMark</text>
</g>
<path d="M238 41h10"></path>
<g>
<path d="M248 41h0"></path>
<path d="M456 41h0"></path>
<path d="M248 41a10 10 0 0 0 10 -10v0a10 10 0 0 1 10 -10"></path>
<g>
<path d="M268 21h168"></path>
</g>
<path d="M436 21a10 10 0 0 1 10 10v0a10 10 0 0 0 10 10"></path>
<path d="M248 41h20"></path>
<g>
<path d="M268 41h0"></path>
<path d="M436 41h0"></path>
<path d="M268 41h10"></path>
<g>
<path d="M278 41h0"></path>
<path d="M426 41h0"></path>
<rect x="278" y="30" width="148" height="22"></rect>
<text x="352" y="45">&#95;ActionLabelChar</text>
</g>
<path d="M426 41h10"></path>
<path d="M278 41a10 10 0 0 0 -10 10v0a10 10 0 0 0 10 10"></path>
<g>
<path d="M278 61h148"></path>
</g>
<path d="M426 61a10 10 0 0 0 10 -10v0a10 10 0 0 0 -10 -10"></path>
</g>
<path d="M436 41h20"></path>
</g>
<path d="M456 41h10"></path>
<g>
<path d="M466 41h0"></path>
<path d="M654 41h0"></path>
<rect x="466" y="30" width="188" height="22"></rect>
<text x="560" y="45">&#95;ActionLabelQuoteMark</text>
</g>
<path d="M654 41h10"></path>
</g>
<path d="M 664 41 h 20 m -10 -10 v 20 m 10 -20 v 20"></path>
</g>
</svg>
