<?xml version="1.0" standalone="no"?>
<!DOCTYPE svg PUBLIC "-//W3C//DTD SVG 1.1//EN"
  "http://www.w3.org/Graphics/SVG/1.1/DTD/svg11.dtd">
<svg xmlns="http://www.w3.org/2000/svg" version="1.1" class="railroad-diagram" width="753" height="362" viewBox="0 0 753 362">
<defs><style type="text/css"><![CDATA[ svg.railroad-diagram {
  background-color: hsl(30,20%,95%);
}
svg.railroad-diagram path {
  stroke-width: 3;
  stroke: black;
  fill: none;
}
svg.railroad-diagram text {
  font: bold 14px monospace;
  text-anchor: middle;
  cursor: pointer;
}
svg.railroad-diagram text.label {
  text-anchor: start;
}
svg.railroad-diagram text.comment {
  font: italic 12px monospace;
}
svg.railroad-diagram rect {
  stroke-width: 3;
  stroke: black;
  fill: hsl(120,100%,90%);
}
 ]]></style></defs>
<g transform="translate(.5 .5)">
<path d="M 20 21 v 20 m 10 -20 v 20 m -10 -10 h 20.5"></path>
<g>
<path d="M40 31h0"></path>
<path d="M712 31h0"></path>
<path d="M40 31h20"></path>
<g>
<path d="M60 31h222"></path>
<path d="M470 31h222"></path>
<rect x="282" y="20" width="188" height="22"></rect>
<text x="376" y="35">&#95;ActionLabelUnescaped</text>
</g>
<path d="M692 31h20"></path>
<path d="M40 31a10 10 0 0 1 10 10v10a10 10 0 0 0 10 10"></path>
<g>
<path d="M60 61h0"></path>
<path d="M692 61h0"></path>
<path d="M60 61h10"></path>
<g>
<path d="M70 61h0"></path>
<path d="M146 61h0"></path>
<rect x="70" y="50" width="76" height="22"></rect>
<text x="108" y="65">&#95;Escape</text>
</g>
<path d="M146 61h10"></path>
<g>
<path d="M156 61h0"></path>
<path d="M692 61h0"></path>
<path d="M156 61h20"></path>
<g>
<path d="M176 61h234"></path>
<path d="M438 61h234"></path>
<rect x="410" y="50" width="28" height="22" rx="10" ry="10"></rect>
<text x="424" y="65">'</text>
</g>
<path d="M672 61h20"></path>
<path d="M156 61a10 10 0 0 1 10 10v10a10 10 0 0 0 10 10"></path>
<g>
<path d="M176 91h234"></path>
<path d="M438 91h234"></path>
<rect x="410" y="80" width="28" height="22" rx="10" ry="10"></rect>
<text x="424" y="95">\</text>
</g>
<path d="M672 91a10 10 0 0 0 10 -10v-10a10 10 0 0 1 10 -10"></path>
<path d="M156 61a10 10 0 0 1 10 10v40a10 10 0 0 0 10 10"></path>
<g>
<path d="M176 121h234"></path>
<path d="M438 121h234"></path>
<rect x="410" y="110" width="28" height="22" rx="10" ry="10"></rect>
<text x="424" y="125">/</text>
</g>
<path d="M672 121a10 10 0 0 0 10 -10v-40a10 10 0 0 1 10 -10"></path>
<path d="M156 61a10 10 0 0 1 10 10v70a10 10 0 0 0 10 10"></path>
<g>
<path d="M176 151h234"></path>
<path d="M438 151h234"></path>
<rect x="410" y="140" width="28" height="22" rx="10" ry="10"></rect>
<text x="424" y="155">b</text>
</g>
<path d="M672 151a10 10 0 0 0 10 -10v-70a10 10 0 0 1 10 -10"></path>
<path d="M156 61a10 10 0 0 1 10 10v100a10 10 0 0 0 10 10"></path>
<g>
<path d="M176 181h234"></path>
<path d="M438 181h234"></path>
<rect x="410" y="170" width="28" height="22" rx="10" ry="10"></rect>
<text x="424" y="185">f</text>
</g>
<path d="M672 181a10 10 0 0 0 10 -10v-100a10 10 0 0 1 10 -10"></path>
<path d="M156 61a10 10 0 0 1 10 10v130a10 10 0 0 0 10 10"></path>
<g>
<path d="M176 211h234"></path>
<path d="M438 211h234"></path>
<rect x="410" y="200" width="28" height="22" rx="10" ry="10"></rect>
<text x="424" y="215">n</text>
</g>
<path d="M672 211a10 10 0 0 0 10 -10v-130a10 10 0 0 1 10 -10"></path>
<path d="M156 61a10 10 0 0 1 10 10v160a10 10 0 0 0 10 10"></path>
<g>
<path d="M176 241h234"></path>
<path d="M438 241h234"></path>
<rect x="410" y="230" width="28" height="22" rx="10" ry="10"></rect>
<text x="424" y="245">r</text>
</g>
<path d="M672 241a10 10 0 0 0 10 -10v-160a10 10 0 0 1 10 -10"></path>
<path d="M156 61a10 10 0 0 1 10 10v190a10 10 0 0 0 10 10"></path>
<g>
<path d="M176 271h234"></path>
<path d="M438 271h234"></path>
<rect x="410" y="260" width="28" height="22" rx="10" ry="10"></rect>
<text x="424" y="275">t</text>
</g>
<path d="M672 271a10 10 0 0 0 10 -10v-190a10 10 0 0 1 10 -10"></path>
<path d="M156 61a10 10 0 0 1 10 10v220a10 10 0 0 0 10 10"></path>
<g>
<path d="M176 301h234"></path>
<path d="M438 301h234"></path>
<rect x="410" y="290" width="28" height="22" rx="10" ry="10"></rect>
<text x="424" y="305">v</text>
</g>
<path d="M672 301a10 10 0 0 0 10 -10v-220a10 10 0 0 1 10 -10"></path>
<path d="M156 61a10 10 0 0 1 10 10v250a10 10 0 0 0 10 10"></path>
<g>
<path d="M176 331h0"></path>
<path d="M672 331h0"></path>
<path d="M176 331h10"></path>
<g>
<path d="M186 331h0"></path>
<path d="M214 331h0"></path>
<rect x="186" y="320" width="28" height="22" rx="10" ry="10"></rect>
<text x="200" y="335">u</text>
</g>
<path d="M214 331h10"></path>
<g>
<path d="M224 331h0"></path>
<path d="M672 331h0"></path>
<path d="M224 331h10"></path>
<g>
<path d="M234 331h0"></path>
<path d="M326 331h0"></path>
<rect x="234" y="320" width="92" height="22"></rect>
<text x="280" y="335">&#95;HexDigit</text>
</g>
<path d="M326 331h10"></path>
<path d="M336 331h10"></path>
<g>
<path d="M346 331h0"></path>
<path d="M438 331h0"></path>
<rect x="346" y="320" width="92" height="22"></rect>
<text x="392" y="335">&#95;HexDigit</text>
</g>
<path d="M438 331h10"></path>
<path d="M448 331h10"></path>
<g>
<path d="M458 331h0"></path>
<path d="M550 331h0"></path>
<rect x="458" y="320" width="92" height="22"></rect>
<text x="504" y="335">&#95;HexDigit</text>
</g>
<path d="M550 331h10"></path>
<path d="M560 331h10"></path>
<g>
<path d="M570 331h0"></path>
<path d="M662 331h0"></path>
<rect x="570" y="320" width="92" height="22"></rect>
<text x="616" y="335">&#95;HexDigit</text>
</g>
<path d="M662 331h10"></path>
</g>
</g>
<path d="M672 331a10 10 0 0 0 10 -10v-250a10 10 0 0 1 10 -10"></path>
</g>
</g>
<path d="M692 61a10 10 0 0 0 10 -10v-10a10 10 0 0 1 10 -10"></path>
</g>
<path d="M 712 31 h 20 m -10 -10 v 20 m 10 -20 v 20"></path>
</g>
</svg>
