<?xml version="1.0" standalone="no"?>
<!DOCTYPE svg PUBLIC "-//W3C//DTD SVG 1.1//EN"
  "http://www.w3.org/Graphics/SVG/1.1/DTD/svg11.dtd">
<svg xmlns="http://www.w3.org/2000/svg" version="1.1" class="railroad-diagram" width="213" height="1292" viewBox="0 0 213 1292">
<defs><style type="text/css"><![CDATA[ svg.railroad-diagram {
  background-color: hsl(30,20%,95%);
}
svg.railroad-diagram path {
  stroke-width: 3;
  stroke: black;
  fill: none;
}
svg.railroad-diagram text {
  font: bold 14px monospace;
  text-anchor: middle;
  cursor: pointer;
}
svg.railroad-diagram text.label {
  text-anchor: start;
}
svg.railroad-diagram text.comment {
  font: italic 12px monospace;
}
svg.railroad-diagram rect {
  stroke-width: 3;
  stroke: black;
  fill: hsl(120,100%,90%);
}
 ]]></style></defs>
<g transform="translate(.5 .5)">
<path d="M 20 21 v 20 m 10 -20 v 20 m -10 -10 h 20.5"></path>
<g>
<path d="M40 31h0"></path>
<path d="M172 31h0"></path>
<path d="M40 31h20"></path>
<g>
<path d="M60 31h24"></path>
<path d="M128 31h24"></path>
<rect x="84" y="20" width="44" height="22" rx="10" ry="10"></rect>
<text x="106" y="35">box</text>
</g>
<path d="M152 31h20"></path>
<path d="M40 31a10 10 0 0 1 10 10v10a10 10 0 0 0 10 10"></path>
<g>
<path d="M60 61h20"></path>
<path d="M132 61h20"></path>
<rect x="80" y="50" width="52" height="22" rx="10" ry="10"></rect>
<text x="106" y="65">lbox</text>
</g>
<path d="M152 61a10 10 0 0 0 10 -10v-10a10 10 0 0 1 10 -10"></path>
<path d="M40 31a10 10 0 0 1 10 10v40a10 10 0 0 0 10 10"></path>
<g>
<path d="M60 91h20"></path>
<path d="M132 91h20"></path>
<rect x="80" y="80" width="52" height="22" rx="10" ry="10"></rect>
<text x="106" y="95">rbox</text>
</g>
<path d="M152 91a10 10 0 0 0 10 -10v-40a10 10 0 0 1 10 -10"></path>
<path d="M40 31a10 10 0 0 1 10 10v70a10 10 0 0 0 10 10"></path>
<g>
<path d="M60 121h20"></path>
<path d="M132 121h20"></path>
<rect x="80" y="110" width="52" height="22" rx="10" ry="10"></rect>
<text x="106" y="125">obox</text>
</g>
<path d="M152 121a10 10 0 0 0 10 -10v-70a10 10 0 0 1 10 -10"></path>
<path d="M40 31a10 10 0 0 1 10 10v100a10 10 0 0 0 10 10"></path>
<g>
<path d="M60 151h16"></path>
<path d="M136 151h16"></path>
<rect x="76" y="140" width="60" height="22" rx="10" ry="10"></rect>
<text x="106" y="155">olbox</text>
</g>
<path d="M152 151a10 10 0 0 0 10 -10v-100a10 10 0 0 1 10 -10"></path>
<path d="M40 31a10 10 0 0 1 10 10v130a10 10 0 0 0 10 10"></path>
<g>
<path d="M60 181h16"></path>
<path d="M136 181h16"></path>
<rect x="76" y="170" width="60" height="22" rx="10" ry="10"></rect>
<text x="106" y="185">orbox</text>
</g>
<path d="M152 181a10 10 0 0 0 10 -10v-130a10 10 0 0 1 10 -10"></path>
<path d="M40 31a10 10 0 0 1 10 10v160a10 10 0 0 0 10 10"></path>
<g>
<path d="M60 211h20"></path>
<path d="M132 211h20"></path>
<rect x="80" y="200" width="52" height="22" rx="10" ry="10"></rect>
<text x="106" y="215">crow</text>
</g>
<path d="M152 211a10 10 0 0 0 10 -10v-160a10 10 0 0 1 10 -10"></path>
<path d="M40 31a10 10 0 0 1 10 10v190a10 10 0 0 0 10 10"></path>
<g>
<path d="M60 241h16"></path>
<path d="M136 241h16"></path>
<rect x="76" y="230" width="60" height="22" rx="10" ry="10"></rect>
<text x="106" y="245">lcrow</text>
</g>
<path d="M152 241a10 10 0 0 0 10 -10v-190a10 10 0 0 1 10 -10"></path>
<path d="M40 31a10 10 0 0 1 10 10v220a10 10 0 0 0 10 10"></path>
<g>
<path d="M60 271h16"></path>
<path d="M136 271h16"></path>
<rect x="76" y="260" width="60" height="22" rx="10" ry="10"></rect>
<text x="106" y="275">rcrow</text>
</g>
<path d="M152 271a10 10 0 0 0 10 -10v-220a10 10 0 0 1 10 -10"></path>
<path d="M40 31a10 10 0 0 1 10 10v250a10 10 0 0 0 10 10"></path>
<g>
<path d="M60 301h8"></path>
<path d="M144 301h8"></path>
<rect x="68" y="290" width="76" height="22" rx="10" ry="10"></rect>
<text x="106" y="305">diamond</text>
</g>
<path d="M152 301a10 10 0 0 0 10 -10v-250a10 10 0 0 1 10 -10"></path>
<path d="M40 31a10 10 0 0 1 10 10v280a10 10 0 0 0 10 10"></path>
<g>
<path d="M60 331h4"></path>
<path d="M148 331h4"></path>
<rect x="64" y="320" width="84" height="22" rx="10" ry="10"></rect>
<text x="106" y="335">ldiamond</text>
</g>
<path d="M152 331a10 10 0 0 0 10 -10v-280a10 10 0 0 1 10 -10"></path>
<path d="M40 31a10 10 0 0 1 10 10v310a10 10 0 0 0 10 10"></path>
<g>
<path d="M60 361h4"></path>
<path d="M148 361h4"></path>
<rect x="64" y="350" width="84" height="22" rx="10" ry="10"></rect>
<text x="106" y="365">rdiamond</text>
</g>
<path d="M152 361a10 10 0 0 0 10 -10v-310a10 10 0 0 1 10 -10"></path>
<path d="M40 31a10 10 0 0 1 10 10v340a10 10 0 0 0 10 10"></path>
<g>
<path d="M60 391h4"></path>
<path d="M148 391h4"></path>
<rect x="64" y="380" width="84" height="22" rx="10" ry="10"></rect>
<text x="106" y="395">odiamond</text>
</g>
<path d="M152 391a10 10 0 0 0 10 -10v-340a10 10 0 0 1 10 -10"></path>
<path d="M40 31a10 10 0 0 1 10 10v370a10 10 0 0 0 10 10"></path>
<g>
<path d="M60 421h0"></path>
<path d="M152 421h0"></path>
<rect x="60" y="410" width="92" height="22" rx="10" ry="10"></rect>
<text x="106" y="425">oldiamond</text>
</g>
<path d="M152 421a10 10 0 0 0 10 -10v-370a10 10 0 0 1 10 -10"></path>
<path d="M40 31a10 10 0 0 1 10 10v400a10 10 0 0 0 10 10"></path>
<g>
<path d="M60 451h0"></path>
<path d="M152 451h0"></path>
<rect x="60" y="440" width="92" height="22" rx="10" ry="10"></rect>
<text x="106" y="455">ordiamond</text>
</g>
<path d="M152 451a10 10 0 0 0 10 -10v-400a10 10 0 0 1 10 -10"></path>
<path d="M40 31a10 10 0 0 1 10 10v430a10 10 0 0 0 10 10"></path>
<g>
<path d="M60 481h24"></path>
<path d="M128 481h24"></path>
<rect x="84" y="470" width="44" height="22" rx="10" ry="10"></rect>
<text x="106" y="485">dot</text>
</g>
<path d="M152 481a10 10 0 0 0 10 -10v-430a10 10 0 0 1 10 -10"></path>
<path d="M40 31a10 10 0 0 1 10 10v460a10 10 0 0 0 10 10"></path>
<g>
<path d="M60 511h20"></path>
<path d="M132 511h20"></path>
<rect x="80" y="500" width="52" height="22" rx="10" ry="10"></rect>
<text x="106" y="515">odot</text>
</g>
<path d="M152 511a10 10 0 0 0 10 -10v-460a10 10 0 0 1 10 -10"></path>
<path d="M40 31a10 10 0 0 1 10 10v490a10 10 0 0 0 10 10"></path>
<g>
<path d="M60 541h24"></path>
<path d="M128 541h24"></path>
<rect x="84" y="530" width="44" height="22" rx="10" ry="10"></rect>
<text x="106" y="545">inv</text>
</g>
<path d="M152 541a10 10 0 0 0 10 -10v-490a10 10 0 0 1 10 -10"></path>
<path d="M40 31a10 10 0 0 1 10 10v520a10 10 0 0 0 10 10"></path>
<g>
<path d="M60 571h20"></path>
<path d="M132 571h20"></path>
<rect x="80" y="560" width="52" height="22" rx="10" ry="10"></rect>
<text x="106" y="575">linv</text>
</g>
<path d="M152 571a10 10 0 0 0 10 -10v-520a10 10 0 0 1 10 -10"></path>
<path d="M40 31a10 10 0 0 1 10 10v550a10 10 0 0 0 10 10"></path>
<g>
<path d="M60 601h20"></path>
<path d="M132 601h20"></path>
<rect x="80" y="590" width="52" height="22" rx="10" ry="10"></rect>
<text x="106" y="605">rinv</text>
</g>
<path d="M152 601a10 10 0 0 0 10 -10v-550a10 10 0 0 1 10 -10"></path>
<path d="M40 31a10 10 0 0 1 10 10v580a10 10 0 0 0 10 10"></path>
<g>
<path d="M60 631h20"></path>
<path d="M132 631h20"></path>
<rect x="80" y="620" width="52" height="22" rx="10" ry="10"></rect>
<text x="106" y="635">oinv</text>
</g>
<path d="M152 631a10 10 0 0 0 10 -10v-580a10 10 0 0 1 10 -10"></path>
<path d="M40 31a10 10 0 0 1 10 10v610a10 10 0 0 0 10 10"></path>
<g>
<path d="M60 661h16"></path>
<path d="M136 661h16"></path>
<rect x="76" y="650" width="60" height="22" rx="10" ry="10"></rect>
<text x="106" y="665">olinv</text>
</g>
<path d="M152 661a10 10 0 0 0 10 -10v-610a10 10 0 0 1 10 -10"></path>
<path d="M40 31a10 10 0 0 1 10 10v640a10 10 0 0 0 10 10"></path>
<g>
<path d="M60 691h16"></path>
<path d="M136 691h16"></path>
<rect x="76" y="680" width="60" height="22" rx="10" ry="10"></rect>
<text x="106" y="695">orinv</text>
</g>
<path d="M152 691a10 10 0 0 0 10 -10v-640a10 10 0 0 1 10 -10"></path>
<path d="M40 31a10 10 0 0 1 10 10v670a10 10 0 0 0 10 10"></path>
<g>
<path d="M60 721h20"></path>
<path d="M132 721h20"></path>
<rect x="80" y="710" width="52" height="22" rx="10" ry="10"></rect>
<text x="106" y="725">none</text>
</g>
<path d="M152 721a10 10 0 0 0 10 -10v-670a10 10 0 0 1 10 -10"></path>
<path d="M40 31a10 10 0 0 1 10 10v700a10 10 0 0 0 10 10"></path>
<g>
<path d="M60 751h12"></path>
<path d="M140 751h12"></path>
<rect x="72" y="740" width="68" height="22" rx="10" ry="10"></rect>
<text x="106" y="755">normal</text>
</g>
<path d="M152 751a10 10 0 0 0 10 -10v-700a10 10 0 0 1 10 -10"></path>
<path d="M40 31a10 10 0 0 1 10 10v730a10 10 0 0 0 10 10"></path>
<g>
<path d="M60 781h8"></path>
<path d="M144 781h8"></path>
<rect x="68" y="770" width="76" height="22" rx="10" ry="10"></rect>
<text x="106" y="785">lnormal</text>
</g>
<path d="M152 781a10 10 0 0 0 10 -10v-730a10 10 0 0 1 10 -10"></path>
<path d="M40 31a10 10 0 0 1 10 10v760a10 10 0 0 0 10 10"></path>
<g>
<path d="M60 811h8"></path>
<path d="M144 811h8"></path>
<rect x="68" y="800" width="76" height="22" rx="10" ry="10"></rect>
<text x="106" y="815">rnormal</text>
</g>
<path d="M152 811a10 10 0 0 0 10 -10v-760a10 10 0 0 1 10 -10"></path>
<path d="M40 31a10 10 0 0 1 10 10v790a10 10 0 0 0 10 10"></path>
<g>
<path d="M60 841h8"></path>
<path d="M144 841h8"></path>
<rect x="68" y="830" width="76" height="22" rx="10" ry="10"></rect>
<text x="106" y="845">onormal</text>
</g>
<path d="M152 841a10 10 0 0 0 10 -10v-790a10 10 0 0 1 10 -10"></path>
<path d="M40 31a10 10 0 0 1 10 10v820a10 10 0 0 0 10 10"></path>
<g>
<path d="M60 871h4"></path>
<path d="M148 871h4"></path>
<rect x="64" y="860" width="84" height="22" rx="10" ry="10"></rect>
<text x="106" y="875">olnormal</text>
</g>
<path d="M152 871a10 10 0 0 0 10 -10v-820a10 10 0 0 1 10 -10"></path>
<path d="M40 31a10 10 0 0 1 10 10v850a10 10 0 0 0 10 10"></path>
<g>
<path d="M60 901h4"></path>
<path d="M148 901h4"></path>
<rect x="64" y="890" width="84" height="22" rx="10" ry="10"></rect>
<text x="106" y="905">ornormal</text>
</g>
<path d="M152 901a10 10 0 0 0 10 -10v-850a10 10 0 0 1 10 -10"></path>
<path d="M40 31a10 10 0 0 1 10 10v880a10 10 0 0 0 10 10"></path>
<g>
<path d="M60 931h24"></path>
<path d="M128 931h24"></path>
<rect x="84" y="920" width="44" height="22" rx="10" ry="10"></rect>
<text x="106" y="935">tee</text>
</g>
<path d="M152 931a10 10 0 0 0 10 -10v-880a10 10 0 0 1 10 -10"></path>
<path d="M40 31a10 10 0 0 1 10 10v910a10 10 0 0 0 10 10"></path>
<g>
<path d="M60 961h20"></path>
<path d="M132 961h20"></path>
<rect x="80" y="950" width="52" height="22" rx="10" ry="10"></rect>
<text x="106" y="965">ltee</text>
</g>
<path d="M152 961a10 10 0 0 0 10 -10v-910a10 10 0 0 1 10 -10"></path>
<path d="M40 31a10 10 0 0 1 10 10v940a10 10 0 0 0 10 10"></path>
<g>
<path d="M60 991h20"></path>
<path d="M132 991h20"></path>
<rect x="80" y="980" width="52" height="22" rx="10" ry="10"></rect>
<text x="106" y="995">rtee</text>
</g>
<path d="M152 991a10 10 0 0 0 10 -10v-940a10 10 0 0 1 10 -10"></path>
<path d="M40 31a10 10 0 0 1 10 10v970a10 10 0 0 0 10 10"></path>
<g>
<path d="M60 1021h24"></path>
<path d="M128 1021h24"></path>
<rect x="84" y="1010" width="44" height="22" rx="10" ry="10"></rect>
<text x="106" y="1025">vee</text>
</g>
<path d="M152 1021a10 10 0 0 0 10 -10v-970a10 10 0 0 1 10 -10"></path>
<path d="M40 31a10 10 0 0 1 10 10v1000a10 10 0 0 0 10 10"></path>
<g>
<path d="M60 1051h20"></path>
<path d="M132 1051h20"></path>
<rect x="80" y="1040" width="52" height="22" rx="10" ry="10"></rect>
<text x="106" y="1055">lvee</text>
</g>
<path d="M152 1051a10 10 0 0 0 10 -10v-1000a10 10 0 0 1 10 -10"></path>
<path d="M40 31a10 10 0 0 1 10 10v1030a10 10 0 0 0 10 10"></path>
<g>
<path d="M60 1081h20"></path>
<path d="M132 1081h20"></path>
<rect x="80" y="1070" width="52" height="22" rx="10" ry="10"></rect>
<text x="106" y="1085">rvee</text>
</g>
<path d="M152 1081a10 10 0 0 0 10 -10v-1030a10 10 0 0 1 10 -10"></path>
<path d="M40 31a10 10 0 0 1 10 10v1060a10 10 0 0 0 10 10"></path>
<g>
<path d="M60 1111h16"></path>
<path d="M136 1111h16"></path>
<rect x="76" y="1100" width="60" height="22" rx="10" ry="10"></rect>
<text x="106" y="1115">curve</text>
</g>
<path d="M152 1111a10 10 0 0 0 10 -10v-1060a10 10 0 0 1 10 -10"></path>
<path d="M40 31a10 10 0 0 1 10 10v1090a10 10 0 0 0 10 10"></path>
<g>
<path d="M60 1141h12"></path>
<path d="M140 1141h12"></path>
<rect x="72" y="1130" width="68" height="22" rx="10" ry="10"></rect>
<text x="106" y="1145">lcurve</text>
</g>
<path d="M152 1141a10 10 0 0 0 10 -10v-1090a10 10 0 0 1 10 -10"></path>
<path d="M40 31a10 10 0 0 1 10 10v1120a10 10 0 0 0 10 10"></path>
<g>
<path d="M60 1171h12"></path>
<path d="M140 1171h12"></path>
<rect x="72" y="1160" width="68" height="22" rx="10" ry="10"></rect>
<text x="106" y="1175">rcurve</text>
</g>
<path d="M152 1171a10 10 0 0 0 10 -10v-1120a10 10 0 0 1 10 -10"></path>
<path d="M40 31a10 10 0 0 1 10 10v1150a10 10 0 0 0 10 10"></path>
<g>
<path d="M60 1201h12"></path>
<path d="M140 1201h12"></path>
<rect x="72" y="1190" width="68" height="22" rx="10" ry="10"></rect>
<text x="106" y="1205">icurve</text>
</g>
<path d="M152 1201a10 10 0 0 0 10 -10v-1150a10 10 0 0 1 10 -10"></path>
<path d="M40 31a10 10 0 0 1 10 10v1180a10 10 0 0 0 10 10"></path>
<g>
<path d="M60 1231h8"></path>
<path d="M144 1231h8"></path>
<rect x="68" y="1220" width="76" height="22" rx="10" ry="10"></rect>
<text x="106" y="1235">licurve</text>
</g>
<path d="M152 1231a10 10 0 0 0 10 -10v-1180a10 10 0 0 1 10 -10"></path>
<path d="M40 31a10 10 0 0 1 10 10v1210a10 10 0 0 0 10 10"></path>
<g>
<path d="M60 1261h8"></path>
<path d="M144 1261h8"></path>
<rect x="68" y="1250" width="76" height="22" rx="10" ry="10"></rect>
<text x="106" y="1265">ricurve</text>
</g>
<path d="M152 1261a10 10 0 0 0 10 -10v-1210a10 10 0 0 1 10 -10"></path>
</g>
<path d="M 172 31 h 20 m -10 -10 v 20 m 10 -20 v 20"></path>
</g>
</svg>
