<?xml version="1.0" standalone="no"?>
<!DOCTYPE svg PUBLIC "-//W3C//DTD SVG 1.1//EN"
  "http://www.w3.org/Graphics/SVG/1.1/DTD/svg11.dtd">
<svg xmlns="http://www.w3.org/2000/svg" version="1.1" class="railroad-diagram" width="417" height="81" viewBox="0 0 417 81">
<defs><style type="text/css"><![CDATA[ svg.railroad-diagram {
  background-color: hsl(30,20%,95%);
}
svg.railroad-diagram path {
  stroke-width: 3;
  stroke: black;
  fill: none;
}
svg.railroad-diagram text {
  font: bold 14px monospace;
  text-anchor: middle;
  cursor: pointer;
}
svg.railroad-diagram text.label {
  text-anchor: start;
}
svg.railroad-diagram text.comment {
  font: italic 12px monospace;
}
svg.railroad-diagram rect {
  stroke-width: 3;
  stroke: black;
  fill: hsl(120,100%,90%);
}
 ]]></style></defs>
<g transform="translate(.5 .5)">
<path d="M 20 31 v 20 m 10 -20 v 20 m -10 -10 h 20.5"></path>
<g>
<path d="M40 41h0"></path>
<path d="M376 41h0"></path>
<path d="M40 41h10"></path>
<g>
<path d="M50 41h0"></path>
<path d="M198 41h0"></path>
<rect x="50" y="30" width="148" height="22"></rect>
<text x="124" y="45">&#95;AtomFirstLetter</text>
</g>
<path d="M198 41h10"></path>
<g>
<path d="M208 41h0"></path>
<path d="M376 41h0"></path>
<path d="M208 41a10 10 0 0 0 10 -10v0a10 10 0 0 1 10 -10"></path>
<g>
<path d="M228 21h128"></path>
</g>
<path d="M356 21a10 10 0 0 1 10 10v0a10 10 0 0 0 10 10"></path>
<path d="M208 41h20"></path>
<g>
<path d="M228 41h0"></path>
<path d="M356 41h0"></path>
<path d="M228 41h10"></path>
<g>
<path d="M238 41h0"></path>
<path d="M346 41h0"></path>
<rect x="238" y="30" width="108" height="22"></rect>
<text x="292" y="45">&#95;AtomLetter</text>
</g>
<path d="M346 41h10"></path>
<path d="M238 41a10 10 0 0 0 -10 10v0a10 10 0 0 0 10 10"></path>
<g>
<path d="M238 61h108"></path>
</g>
<path d="M346 61a10 10 0 0 0 10 -10v0a10 10 0 0 0 -10 -10"></path>
</g>
<path d="M356 41h20"></path>
</g>
</g>
<path d="M 376 41 h 20 m -10 -10 v 20 m 10 -20 v 20"></path>
</g>
</svg>
