<?xml version="1.0" standalone="no"?>
<!DOCTYPE svg PUBLIC "-//W3C//DTD SVG 1.1//EN"
  "http://www.w3.org/Graphics/SVG/1.1/DTD/svg11.dtd">
<svg xmlns="http://www.w3.org/2000/svg" version="1.1" class="railroad-diagram" width="301" height="90" viewBox="0 0 301 90">
<defs><style type="text/css"><![CDATA[ svg.railroad-diagram {
  background-color: hsl(30,20%,95%);
}
svg.railroad-diagram path {
  stroke-width: 3;
  stroke: black;
  fill: none;
}
svg.railroad-diagram text {
  font: bold 14px monospace;
  text-anchor: middle;
  cursor: pointer;
}
svg.railroad-diagram text.label {
  text-anchor: start;
}
svg.railroad-diagram text.comment {
  font: italic 12px monospace;
}
svg.railroad-diagram rect {
  stroke-width: 3;
  stroke: black;
  fill: hsl(120,100%,90%);
}
 ]]></style></defs>
<g transform="translate(.5 .5)">
<path d="M 20 20 v 20 m 10 -20 v 20 m -10 -10 h 20.5"></path>
<g>
<path d="M40 30h0"></path>
<path d="M260 30h0"></path>
<path d="M40 30h20"></path>
<g>
<path d="M60 30h180"></path>
</g>
<path d="M240 30h20"></path>
<path d="M40 30a10 10 0 0 1 10 10v0a10 10 0 0 0 10 10"></path>
<g>
<path d="M60 50h0"></path>
<path d="M240 50h0"></path>
<path d="M 60 50 h 20 m -10 -10 v 20 m 10 -20 v 20"></path>
<path d="M80 50h10"></path>
<g>
<path d="M90 50h0"></path>
<path d="M230 50h0"></path>
<rect x="90" y="39" width="140" height="22" rx="10" ry="10"></rect>
<text x="160" y="54">&#91;any character&#93;</text>
</g>
<path d="M230 50h10"></path>
</g>
<path d="M240 50a10 10 0 0 0 10 -10v0a10 10 0 0 1 10 -10"></path>
</g>
<path d="M 260 30 h 20 m -10 -10 v 20 m 10 -20 v 20"></path>
</g>
</svg>
