<?xml version="1.0" standalone="no"?>
<!DOCTYPE svg PUBLIC "-//W3C//DTD SVG 1.1//EN"
  "http://www.w3.org/Graphics/SVG/1.1/DTD/svg11.dtd">
<svg xmlns="http://www.w3.org/2000/svg" version="1.1" class="railroad-diagram" width="305" height="102" viewBox="0 0 305 102">
<defs><style type="text/css"><![CDATA[ svg.railroad-diagram {
  background-color: hsl(30,20%,95%);
}
svg.railroad-diagram path {
  stroke-width: 3;
  stroke: black;
  fill: none;
}
svg.railroad-diagram text {
  font: bold 14px monospace;
  text-anchor: middle;
  cursor: pointer;
}
svg.railroad-diagram text.label {
  text-anchor: start;
}
svg.railroad-diagram text.comment {
  font: italic 12px monospace;
}
svg.railroad-diagram rect {
  stroke-width: 3;
  stroke: black;
  fill: hsl(120,100%,90%);
}
 ]]></style></defs>
<g transform="translate(.5 .5)">
<path d="M 20 31 v 20 m 10 -20 v 20 m -10 -10 h 20.5"></path>
<g>
<path d="M40 41h0"></path>
<path d="M264 41h0"></path>
<path d="M40 41h10"></path>
<g>
<path d="M50 41h0"></path>
<path d="M78 41h0"></path>
<rect x="50" y="30" width="28" height="22" rx="10" ry="10"></rect>
<text x="64" y="45">&#91;</text>
</g>
<path d="M78 41h10"></path>
<path d="M88 41h10"></path>
<g>
<path d="M98 41h0"></path>
<path d="M206 41h0"></path>
<path d="M98 41h10"></path>
<g>
<path d="M108 41h2"></path>
<path d="M194 41h2"></path>
<g>
<path d="M110 41h0"></path>
<path d="M194 41h0"></path>
<path d="M110 41a10 10 0 0 0 10 -10v0a10 10 0 0 1 10 -10"></path>
<g>
<path d="M130 21h44"></path>
</g>
<path d="M174 21a10 10 0 0 1 10 10v0a10 10 0 0 0 10 10"></path>
<path d="M110 41h20"></path>
<g>
<path d="M130 41h0"></path>
<path d="M174 41h0"></path>
<rect x="130" y="30" width="44" height="22"></rect>
<text x="152" y="45">&#95;WS</text>
</g>
<path d="M174 41h20"></path>
</g>
</g>
<path d="M196 41h10"></path>
<path d="M108 41a10 10 0 0 0 -10 10v10a10 10 0 0 0 10 10"></path>
<g>
<path d="M108 71h0"></path>
<path d="M196 71h0"></path>
<path d="M108 71h10"></path>
<g>
<path d="M118 71h0"></path>
<path d="M186 71h0"></path>
<rect x="118" y="60" width="68" height="22"></rect>
<text x="152" y="75">&#95;Label</text>
</g>
<path d="M186 71h10"></path>
</g>
<path d="M196 71a10 10 0 0 0 10 -10v-10a10 10 0 0 0 -10 -10"></path>
</g>
<path d="M206 41h10"></path>
<path d="M216 41h10"></path>
<g>
<path d="M226 41h0"></path>
<path d="M254 41h0"></path>
<rect x="226" y="30" width="28" height="22" rx="10" ry="10"></rect>
<text x="240" y="45">&#93;</text>
</g>
<path d="M254 41h10"></path>
</g>
<path d="M 264 41 h 20 m -10 -10 v 20 m 10 -20 v 20"></path>
</g>
</svg>
