<?xml version="1.0" standalone="no"?>
<!DOCTYPE svg PUBLIC "-//W3C//DTD SVG 1.1//EN"
  "http://www.w3.org/Graphics/SVG/1.1/DTD/svg11.dtd">
<svg xmlns="http://www.w3.org/2000/svg" version="1.1" class="railroad-diagram" width="449" height="122" viewBox="0 0 449 122">
<defs><style type="text/css"><![CDATA[ svg.railroad-diagram {
  background-color: hsl(30,20%,95%);
}
svg.railroad-diagram path {
  stroke-width: 3;
  stroke: black;
  fill: none;
}
svg.railroad-diagram text {
  font: bold 14px monospace;
  text-anchor: middle;
  cursor: pointer;
}
svg.railroad-diagram text.label {
  text-anchor: start;
}
svg.railroad-diagram text.comment {
  font: italic 12px monospace;
}
svg.railroad-diagram rect {
  stroke-width: 3;
  stroke: black;
  fill: hsl(120,100%,90%);
}
 ]]></style></defs>
<g transform="translate(.5 .5)">
<path d="M 20 21 v 20 m 10 -20 v 20 m -10 -10 h 20.5"></path>
<g>
<path d="M40 31h0"></path>
<path d="M408 31h0"></path>
<path d="M40 31h20"></path>
<g>
<path d="M60 31h94"></path>
<path d="M294 31h94"></path>
<rect x="154" y="20" width="140" height="22"></rect>
<text x="224" y="35">&#95;LineTerminator</text>
</g>
<path d="M388 31h20"></path>
<path d="M40 31a10 10 0 0 1 10 10v10a10 10 0 0 0 10 10"></path>
<g>
<path d="M60 61h138"></path>
<path d="M250 61h138"></path>
<rect x="198" y="50" width="52" height="22"></rect>
<text x="224" y="65">&#95;EOF</text>
</g>
<path d="M388 61a10 10 0 0 0 10 -10v-10a10 10 0 0 1 10 -10"></path>
<path d="M40 31a10 10 0 0 1 10 10v40a10 10 0 0 0 10 10"></path>
<g>
<path d="M60 91h0"></path>
<path d="M388 91h0"></path>
<path d="M60 91h10"></path>
<g>
<path d="M70 91h0"></path>
<path d="M210 91h0"></path>
<rect x="70" y="80" width="140" height="22" rx="10" ry="10"></rect>
<text x="140" y="95">&#91;any character&#93;</text>
</g>
<path d="M210 91h10"></path>
<path d="M220 91h10"></path>
<g>
<path d="M230 91h0"></path>
<path d="M378 91h0"></path>
<rect x="230" y="80" width="148" height="22"></rect>
<text x="304" y="95">&#95;LineCommentTail</text>
</g>
<path d="M378 91h10"></path>
</g>
<path d="M388 91a10 10 0 0 0 10 -10v-40a10 10 0 0 1 10 -10"></path>
</g>
<path d="M 408 31 h 20 m -10 -10 v 20 m 10 -20 v 20"></path>
</g>
</svg>
