<?xml version="1.0" standalone="no"?>
<!DOCTYPE svg PUBLIC "-//W3C//DTD SVG 1.1//EN"
  "http://www.w3.org/Graphics/SVG/1.1/DTD/svg11.dtd">
<svg xmlns="http://www.w3.org/2000/svg" version="1.1" class="railroad-diagram" width="261" height="1832" viewBox="0 0 261 1832">
<defs><style type="text/css"><![CDATA[ svg.railroad-diagram {
  background-color: hsl(30,20%,95%);
}
svg.railroad-diagram path {
  stroke-width: 3;
  stroke: black;
  fill: none;
}
svg.railroad-diagram text {
  font: bold 14px monospace;
  text-anchor: middle;
  cursor: pointer;
}
svg.railroad-diagram text.label {
  text-anchor: start;
}
svg.railroad-diagram text.comment {
  font: italic 12px monospace;
}
svg.railroad-diagram rect {
  stroke-width: 3;
  stroke: black;
  fill: hsl(120,100%,90%);
}
 ]]></style></defs>
<g transform="translate(.5 .5)">
<path d="M 20 21 v 20 m 10 -20 v 20 m -10 -10 h 20.5"></path>
<g>
<path d="M40 31h0"></path>
<path d="M220 31h0"></path>
<path d="M40 31h20"></path>
<g>
<path d="M60 31h48"></path>
<path d="M152 31h48"></path>
<rect x="108" y="20" width="44" height="22" rx="10" ry="10"></rect>
<text x="130" y="35">box</text>
</g>
<path d="M200 31h20"></path>
<path d="M40 31a10 10 0 0 1 10 10v10a10 10 0 0 0 10 10"></path>
<g>
<path d="M60 61h32"></path>
<path d="M168 61h32"></path>
<rect x="92" y="50" width="76" height="22" rx="10" ry="10"></rect>
<text x="130" y="65">polygon</text>
</g>
<path d="M200 61a10 10 0 0 0 10 -10v-10a10 10 0 0 1 10 -10"></path>
<path d="M40 31a10 10 0 0 1 10 10v40a10 10 0 0 0 10 10"></path>
<g>
<path d="M60 91h32"></path>
<path d="M168 91h32"></path>
<rect x="92" y="80" width="76" height="22" rx="10" ry="10"></rect>
<text x="130" y="95">ellipse</text>
</g>
<path d="M200 91a10 10 0 0 0 10 -10v-40a10 10 0 0 1 10 -10"></path>
<path d="M40 31a10 10 0 0 1 10 10v70a10 10 0 0 0 10 10"></path>
<g>
<path d="M60 121h44"></path>
<path d="M156 121h44"></path>
<rect x="104" y="110" width="52" height="22" rx="10" ry="10"></rect>
<text x="130" y="125">oval</text>
</g>
<path d="M200 121a10 10 0 0 0 10 -10v-70a10 10 0 0 1 10 -10"></path>
<path d="M40 31a10 10 0 0 1 10 10v100a10 10 0 0 0 10 10"></path>
<g>
<path d="M60 151h36"></path>
<path d="M164 151h36"></path>
<rect x="96" y="140" width="68" height="22" rx="10" ry="10"></rect>
<text x="130" y="155">circle</text>
</g>
<path d="M200 151a10 10 0 0 0 10 -10v-100a10 10 0 0 1 10 -10"></path>
<path d="M40 31a10 10 0 0 1 10 10v130a10 10 0 0 0 10 10"></path>
<g>
<path d="M60 181h40"></path>
<path d="M160 181h40"></path>
<rect x="100" y="170" width="60" height="22" rx="10" ry="10"></rect>
<text x="130" y="185">point</text>
</g>
<path d="M200 181a10 10 0 0 0 10 -10v-130a10 10 0 0 1 10 -10"></path>
<path d="M40 31a10 10 0 0 1 10 10v160a10 10 0 0 0 10 10"></path>
<g>
<path d="M60 211h48"></path>
<path d="M152 211h48"></path>
<rect x="108" y="200" width="44" height="22" rx="10" ry="10"></rect>
<text x="130" y="215">egg</text>
</g>
<path d="M200 211a10 10 0 0 0 10 -10v-160a10 10 0 0 1 10 -10"></path>
<path d="M40 31a10 10 0 0 1 10 10v190a10 10 0 0 0 10 10"></path>
<g>
<path d="M60 241h28"></path>
<path d="M172 241h28"></path>
<rect x="88" y="230" width="84" height="22" rx="10" ry="10"></rect>
<text x="130" y="245">triangle</text>
</g>
<path d="M200 241a10 10 0 0 0 10 -10v-190a10 10 0 0 1 10 -10"></path>
<path d="M40 31a10 10 0 0 1 10 10v220a10 10 0 0 0 10 10"></path>
<g>
<path d="M60 271h24"></path>
<path d="M176 271h24"></path>
<rect x="84" y="260" width="92" height="22" rx="10" ry="10"></rect>
<text x="130" y="275">plaintext</text>
</g>
<path d="M200 271a10 10 0 0 0 10 -10v-220a10 10 0 0 1 10 -10"></path>
<path d="M40 31a10 10 0 0 1 10 10v250a10 10 0 0 0 10 10"></path>
<g>
<path d="M60 301h40"></path>
<path d="M160 301h40"></path>
<rect x="100" y="290" width="60" height="22" rx="10" ry="10"></rect>
<text x="130" y="305">plain</text>
</g>
<path d="M200 301a10 10 0 0 0 10 -10v-250a10 10 0 0 1 10 -10"></path>
<path d="M40 31a10 10 0 0 1 10 10v280a10 10 0 0 0 10 10"></path>
<g>
<path d="M60 331h32"></path>
<path d="M168 331h32"></path>
<rect x="92" y="320" width="76" height="22" rx="10" ry="10"></rect>
<text x="130" y="335">diamond</text>
</g>
<path d="M200 331a10 10 0 0 0 10 -10v-280a10 10 0 0 1 10 -10"></path>
<path d="M40 31a10 10 0 0 1 10 10v310a10 10 0 0 0 10 10"></path>
<g>
<path d="M60 361h24"></path>
<path d="M176 361h24"></path>
<rect x="84" y="350" width="92" height="22" rx="10" ry="10"></rect>
<text x="130" y="365">trapezium</text>
</g>
<path d="M200 361a10 10 0 0 0 10 -10v-310a10 10 0 0 1 10 -10"></path>
<path d="M40 31a10 10 0 0 1 10 10v340a10 10 0 0 0 10 10"></path>
<g>
<path d="M60 391h8"></path>
<path d="M192 391h8"></path>
<rect x="68" y="380" width="124" height="22" rx="10" ry="10"></rect>
<text x="130" y="395">parallelogram</text>
</g>
<path d="M200 391a10 10 0 0 0 10 -10v-340a10 10 0 0 1 10 -10"></path>
<path d="M40 31a10 10 0 0 1 10 10v370a10 10 0 0 0 10 10"></path>
<g>
<path d="M60 421h40"></path>
<path d="M160 421h40"></path>
<rect x="100" y="410" width="60" height="22" rx="10" ry="10"></rect>
<text x="130" y="425">house</text>
</g>
<path d="M200 421a10 10 0 0 0 10 -10v-370a10 10 0 0 1 10 -10"></path>
<path d="M40 31a10 10 0 0 1 10 10v400a10 10 0 0 0 10 10"></path>
<g>
<path d="M60 451h28"></path>
<path d="M172 451h28"></path>
<rect x="88" y="440" width="84" height="22" rx="10" ry="10"></rect>
<text x="130" y="455">pentagon</text>
</g>
<path d="M200 451a10 10 0 0 0 10 -10v-400a10 10 0 0 1 10 -10"></path>
<path d="M40 31a10 10 0 0 1 10 10v430a10 10 0 0 0 10 10"></path>
<g>
<path d="M60 481h32"></path>
<path d="M168 481h32"></path>
<rect x="92" y="470" width="76" height="22" rx="10" ry="10"></rect>
<text x="130" y="485">hexagon</text>
</g>
<path d="M200 481a10 10 0 0 0 10 -10v-430a10 10 0 0 1 10 -10"></path>
<path d="M40 31a10 10 0 0 1 10 10v460a10 10 0 0 0 10 10"></path>
<g>
<path d="M60 511h28"></path>
<path d="M172 511h28"></path>
<rect x="88" y="500" width="84" height="22" rx="10" ry="10"></rect>
<text x="130" y="515">septagon</text>
</g>
<path d="M200 511a10 10 0 0 0 10 -10v-460a10 10 0 0 1 10 -10"></path>
<path d="M40 31a10 10 0 0 1 10 10v490a10 10 0 0 0 10 10"></path>
<g>
<path d="M60 541h32"></path>
<path d="M168 541h32"></path>
<rect x="92" y="530" width="76" height="22" rx="10" ry="10"></rect>
<text x="130" y="545">octagon</text>
</g>
<path d="M200 541a10 10 0 0 0 10 -10v-490a10 10 0 0 1 10 -10"></path>
<path d="M40 31a10 10 0 0 1 10 10v520a10 10 0 0 0 10 10"></path>
<g>
<path d="M60 571h12"></path>
<path d="M188 571h12"></path>
<rect x="72" y="560" width="116" height="22" rx="10" ry="10"></rect>
<text x="130" y="575">doublecircle</text>
</g>
<path d="M200 571a10 10 0 0 0 10 -10v-520a10 10 0 0 1 10 -10"></path>
<path d="M40 31a10 10 0 0 1 10 10v550a10 10 0 0 0 10 10"></path>
<g>
<path d="M60 601h8"></path>
<path d="M192 601h8"></path>
<rect x="68" y="590" width="124" height="22" rx="10" ry="10"></rect>
<text x="130" y="605">doubleoctagon</text>
</g>
<path d="M200 601a10 10 0 0 0 10 -10v-550a10 10 0 0 1 10 -10"></path>
<path d="M40 31a10 10 0 0 1 10 10v580a10 10 0 0 0 10 10"></path>
<g>
<path d="M60 631h8"></path>
<path d="M192 631h8"></path>
<rect x="68" y="620" width="124" height="22" rx="10" ry="10"></rect>
<text x="130" y="635">tripleoctagon</text>
</g>
<path d="M200 631a10 10 0 0 0 10 -10v-580a10 10 0 0 1 10 -10"></path>
<path d="M40 31a10 10 0 0 1 10 10v610a10 10 0 0 0 10 10"></path>
<g>
<path d="M60 661h16"></path>
<path d="M184 661h16"></path>
<rect x="76" y="650" width="108" height="22" rx="10" ry="10"></rect>
<text x="130" y="665">invtriangle</text>
</g>
<path d="M200 661a10 10 0 0 0 10 -10v-610a10 10 0 0 1 10 -10"></path>
<path d="M40 31a10 10 0 0 1 10 10v640a10 10 0 0 0 10 10"></path>
<g>
<path d="M60 691h12"></path>
<path d="M188 691h12"></path>
<rect x="72" y="680" width="116" height="22" rx="10" ry="10"></rect>
<text x="130" y="695">invtrapezium</text>
</g>
<path d="M200 691a10 10 0 0 0 10 -10v-640a10 10 0 0 1 10 -10"></path>
<path d="M40 31a10 10 0 0 1 10 10v670a10 10 0 0 0 10 10"></path>
<g>
<path d="M60 721h28"></path>
<path d="M172 721h28"></path>
<rect x="88" y="710" width="84" height="22" rx="10" ry="10"></rect>
<text x="130" y="725">invhouse</text>
</g>
<path d="M200 721a10 10 0 0 0 10 -10v-670a10 10 0 0 1 10 -10"></path>
<path d="M40 31a10 10 0 0 1 10 10v700a10 10 0 0 0 10 10"></path>
<g>
<path d="M60 751h28"></path>
<path d="M172 751h28"></path>
<rect x="88" y="740" width="84" height="22" rx="10" ry="10"></rect>
<text x="130" y="755">Mdiamond</text>
</g>
<path d="M200 751a10 10 0 0 0 10 -10v-700a10 10 0 0 1 10 -10"></path>
<path d="M40 31a10 10 0 0 1 10 10v730a10 10 0 0 0 10 10"></path>
<g>
<path d="M60 781h32"></path>
<path d="M168 781h32"></path>
<rect x="92" y="770" width="76" height="22" rx="10" ry="10"></rect>
<text x="130" y="785">Msquare</text>
</g>
<path d="M200 781a10 10 0 0 0 10 -10v-730a10 10 0 0 1 10 -10"></path>
<path d="M40 31a10 10 0 0 1 10 10v760a10 10 0 0 0 10 10"></path>
<g>
<path d="M60 811h32"></path>
<path d="M168 811h32"></path>
<rect x="92" y="800" width="76" height="22" rx="10" ry="10"></rect>
<text x="130" y="815">Mcircle</text>
</g>
<path d="M200 811a10 10 0 0 0 10 -10v-760a10 10 0 0 1 10 -10"></path>
<path d="M40 31a10 10 0 0 1 10 10v790a10 10 0 0 0 10 10"></path>
<g>
<path d="M60 841h44"></path>
<path d="M156 841h44"></path>
<rect x="104" y="830" width="52" height="22" rx="10" ry="10"></rect>
<text x="130" y="845">rect</text>
</g>
<path d="M200 841a10 10 0 0 0 10 -10v-790a10 10 0 0 1 10 -10"></path>
<path d="M40 31a10 10 0 0 1 10 10v820a10 10 0 0 0 10 10"></path>
<g>
<path d="M60 871h24"></path>
<path d="M176 871h24"></path>
<rect x="84" y="860" width="92" height="22" rx="10" ry="10"></rect>
<text x="130" y="875">rectangle</text>
</g>
<path d="M200 871a10 10 0 0 0 10 -10v-820a10 10 0 0 1 10 -10"></path>
<path d="M40 31a10 10 0 0 1 10 10v850a10 10 0 0 0 10 10"></path>
<g>
<path d="M60 901h36"></path>
<path d="M164 901h36"></path>
<rect x="96" y="890" width="68" height="22" rx="10" ry="10"></rect>
<text x="130" y="905">square</text>
</g>
<path d="M200 901a10 10 0 0 0 10 -10v-850a10 10 0 0 1 10 -10"></path>
<path d="M40 31a10 10 0 0 1 10 10v880a10 10 0 0 0 10 10"></path>
<g>
<path d="M60 931h44"></path>
<path d="M156 931h44"></path>
<rect x="104" y="920" width="52" height="22" rx="10" ry="10"></rect>
<text x="130" y="935">star</text>
</g>
<path d="M200 931a10 10 0 0 0 10 -10v-880a10 10 0 0 1 10 -10"></path>
<path d="M40 31a10 10 0 0 1 10 10v910a10 10 0 0 0 10 10"></path>
<g>
<path d="M60 961h44"></path>
<path d="M156 961h44"></path>
<rect x="104" y="950" width="52" height="22" rx="10" ry="10"></rect>
<text x="130" y="965">none</text>
</g>
<path d="M200 961a10 10 0 0 0 10 -10v-910a10 10 0 0 1 10 -10"></path>
<path d="M40 31a10 10 0 0 1 10 10v940a10 10 0 0 0 10 10"></path>
<g>
<path d="M60 991h24"></path>
<path d="M176 991h24"></path>
<rect x="84" y="980" width="92" height="22" rx="10" ry="10"></rect>
<text x="130" y="995">underline</text>
</g>
<path d="M200 991a10 10 0 0 0 10 -10v-940a10 10 0 0 1 10 -10"></path>
<path d="M40 31a10 10 0 0 1 10 10v970a10 10 0 0 0 10 10"></path>
<g>
<path d="M60 1021h28"></path>
<path d="M172 1021h28"></path>
<rect x="88" y="1010" width="84" height="22" rx="10" ry="10"></rect>
<text x="130" y="1025">cylinder</text>
</g>
<path d="M200 1021a10 10 0 0 0 10 -10v-970a10 10 0 0 1 10 -10"></path>
<path d="M40 31a10 10 0 0 1 10 10v1000a10 10 0 0 0 10 10"></path>
<g>
<path d="M60 1051h44"></path>
<path d="M156 1051h44"></path>
<rect x="104" y="1040" width="52" height="22" rx="10" ry="10"></rect>
<text x="130" y="1055">note</text>
</g>
<path d="M200 1051a10 10 0 0 0 10 -10v-1000a10 10 0 0 1 10 -10"></path>
<path d="M40 31a10 10 0 0 1 10 10v1030a10 10 0 0 0 10 10"></path>
<g>
<path d="M60 1081h48"></path>
<path d="M152 1081h48"></path>
<rect x="108" y="1070" width="44" height="22" rx="10" ry="10"></rect>
<text x="130" y="1085">tab</text>
</g>
<path d="M200 1081a10 10 0 0 0 10 -10v-1030a10 10 0 0 1 10 -10"></path>
<path d="M40 31a10 10 0 0 1 10 10v1060a10 10 0 0 0 10 10"></path>
<g>
<path d="M60 1111h36"></path>
<path d="M164 1111h36"></path>
<rect x="96" y="1100" width="68" height="22" rx="10" ry="10"></rect>
<text x="130" y="1115">folder</text>
</g>
<path d="M200 1111a10 10 0 0 0 10 -10v-1060a10 10 0 0 1 10 -10"></path>
<path d="M40 31a10 10 0 0 1 10 10v1090a10 10 0 0 0 10 10"></path>
<g>
<path d="M60 1141h40"></path>
<path d="M160 1141h40"></path>
<rect x="100" y="1130" width="60" height="22" rx="10" ry="10"></rect>
<text x="130" y="1145">box3d</text>
</g>
<path d="M200 1141a10 10 0 0 0 10 -10v-1090a10 10 0 0 1 10 -10"></path>
<path d="M40 31a10 10 0 0 1 10 10v1120a10 10 0 0 0 10 10"></path>
<g>
<path d="M60 1171h24"></path>
<path d="M176 1171h24"></path>
<rect x="84" y="1160" width="92" height="22" rx="10" ry="10"></rect>
<text x="130" y="1175">component</text>
</g>
<path d="M200 1171a10 10 0 0 0 10 -10v-1120a10 10 0 0 1 10 -10"></path>
<path d="M40 31a10 10 0 0 1 10 10v1150a10 10 0 0 0 10 10"></path>
<g>
<path d="M60 1201h28"></path>
<path d="M172 1201h28"></path>
<rect x="88" y="1190" width="84" height="22" rx="10" ry="10"></rect>
<text x="130" y="1205">promoter</text>
</g>
<path d="M200 1201a10 10 0 0 0 10 -10v-1150a10 10 0 0 1 10 -10"></path>
<path d="M40 31a10 10 0 0 1 10 10v1180a10 10 0 0 0 10 10"></path>
<g>
<path d="M60 1231h48"></path>
<path d="M152 1231h48"></path>
<rect x="108" y="1220" width="44" height="22" rx="10" ry="10"></rect>
<text x="130" y="1235">cds</text>
</g>
<path d="M200 1231a10 10 0 0 0 10 -10v-1180a10 10 0 0 1 10 -10"></path>
<path d="M40 31a10 10 0 0 1 10 10v1210a10 10 0 0 0 10 10"></path>
<g>
<path d="M60 1261h20"></path>
<path d="M180 1261h20"></path>
<rect x="80" y="1250" width="100" height="22" rx="10" ry="10"></rect>
<text x="130" y="1265">terminator</text>
</g>
<path d="M200 1261a10 10 0 0 0 10 -10v-1210a10 10 0 0 1 10 -10"></path>
<path d="M40 31a10 10 0 0 1 10 10v1240a10 10 0 0 0 10 10"></path>
<g>
<path d="M60 1291h48"></path>
<path d="M152 1291h48"></path>
<rect x="108" y="1280" width="44" height="22" rx="10" ry="10"></rect>
<text x="130" y="1295">utr</text>
</g>
<path d="M200 1291a10 10 0 0 0 10 -10v-1240a10 10 0 0 1 10 -10"></path>
<path d="M40 31a10 10 0 0 1 10 10v1270a10 10 0 0 0 10 10"></path>
<g>
<path d="M60 1321h20"></path>
<path d="M180 1321h20"></path>
<rect x="80" y="1310" width="100" height="22" rx="10" ry="10"></rect>
<text x="130" y="1325">primersite</text>
</g>
<path d="M200 1321a10 10 0 0 0 10 -10v-1270a10 10 0 0 1 10 -10"></path>
<path d="M40 31a10 10 0 0 1 10 10v1300a10 10 0 0 0 10 10"></path>
<g>
<path d="M60 1351h0"></path>
<path d="M200 1351h0"></path>
<rect x="60" y="1340" width="140" height="22" rx="10" ry="10"></rect>
<text x="130" y="1355">restrictionsite</text>
</g>
<path d="M200 1351a10 10 0 0 0 10 -10v-1300a10 10 0 0 1 10 -10"></path>
<path d="M40 31a10 10 0 0 1 10 10v1330a10 10 0 0 0 10 10"></path>
<g>
<path d="M60 1381h8"></path>
<path d="M192 1381h8"></path>
<rect x="68" y="1370" width="124" height="22" rx="10" ry="10"></rect>
<text x="130" y="1385">fivepoverhang</text>
</g>
<path d="M200 1381a10 10 0 0 0 10 -10v-1330a10 10 0 0 1 10 -10"></path>
<path d="M40 31a10 10 0 0 1 10 10v1360a10 10 0 0 0 10 10"></path>
<g>
<path d="M60 1411h4"></path>
<path d="M196 1411h4"></path>
<rect x="64" y="1400" width="132" height="22" rx="10" ry="10"></rect>
<text x="130" y="1415">threepoverhang</text>
</g>
<path d="M200 1411a10 10 0 0 0 10 -10v-1360a10 10 0 0 1 10 -10"></path>
<path d="M40 31a10 10 0 0 1 10 10v1390a10 10 0 0 0 10 10"></path>
<g>
<path d="M60 1441h24"></path>
<path d="M176 1441h24"></path>
<rect x="84" y="1430" width="92" height="22" rx="10" ry="10"></rect>
<text x="130" y="1445">noverhang</text>
</g>
<path d="M200 1441a10 10 0 0 0 10 -10v-1390a10 10 0 0 1 10 -10"></path>
<path d="M40 31a10 10 0 0 1 10 10v1420a10 10 0 0 0 10 10"></path>
<g>
<path d="M60 1471h28"></path>
<path d="M172 1471h28"></path>
<rect x="88" y="1460" width="84" height="22" rx="10" ry="10"></rect>
<text x="130" y="1475">assembly</text>
</g>
<path d="M200 1471a10 10 0 0 0 10 -10v-1420a10 10 0 0 1 10 -10"></path>
<path d="M40 31a10 10 0 0 1 10 10v1450a10 10 0 0 0 10 10"></path>
<g>
<path d="M60 1501h24"></path>
<path d="M176 1501h24"></path>
<rect x="84" y="1490" width="92" height="22" rx="10" ry="10"></rect>
<text x="130" y="1505">signature</text>
</g>
<path d="M200 1501a10 10 0 0 0 10 -10v-1450a10 10 0 0 1 10 -10"></path>
<path d="M40 31a10 10 0 0 1 10 10v1480a10 10 0 0 0 10 10"></path>
<g>
<path d="M60 1531h24"></path>
<path d="M176 1531h24"></path>
<rect x="84" y="1520" width="92" height="22" rx="10" ry="10"></rect>
<text x="130" y="1535">insulator</text>
</g>
<path d="M200 1531a10 10 0 0 0 10 -10v-1480a10 10 0 0 1 10 -10"></path>
<path d="M40 31a10 10 0 0 1 10 10v1510a10 10 0 0 0 10 10"></path>
<g>
<path d="M60 1561h28"></path>
<path d="M172 1561h28"></path>
<rect x="88" y="1550" width="84" height="22" rx="10" ry="10"></rect>
<text x="130" y="1565">ribosite</text>
</g>
<path d="M200 1561a10 10 0 0 0 10 -10v-1510a10 10 0 0 1 10 -10"></path>
<path d="M40 31a10 10 0 0 1 10 10v1540a10 10 0 0 0 10 10"></path>
<g>
<path d="M60 1591h32"></path>
<path d="M168 1591h32"></path>
<rect x="92" y="1580" width="76" height="22" rx="10" ry="10"></rect>
<text x="130" y="1595">rnastab</text>
</g>
<path d="M200 1591a10 10 0 0 0 10 -10v-1540a10 10 0 0 1 10 -10"></path>
<path d="M40 31a10 10 0 0 1 10 10v1570a10 10 0 0 0 10 10"></path>
<g>
<path d="M60 1621h12"></path>
<path d="M188 1621h12"></path>
<rect x="72" y="1610" width="116" height="22" rx="10" ry="10"></rect>
<text x="130" y="1625">proteasesite</text>
</g>
<path d="M200 1621a10 10 0 0 0 10 -10v-1570a10 10 0 0 1 10 -10"></path>
<path d="M40 31a10 10 0 0 1 10 10v1600a10 10 0 0 0 10 10"></path>
<g>
<path d="M60 1651h16"></path>
<path d="M184 1651h16"></path>
<rect x="76" y="1640" width="108" height="22" rx="10" ry="10"></rect>
<text x="130" y="1655">proteinstab</text>
</g>
<path d="M200 1651a10 10 0 0 0 10 -10v-1600a10 10 0 0 1 10 -10"></path>
<path d="M40 31a10 10 0 0 1 10 10v1630a10 10 0 0 0 10 10"></path>
<g>
<path d="M60 1681h24"></path>
<path d="M176 1681h24"></path>
<rect x="84" y="1670" width="92" height="22" rx="10" ry="10"></rect>
<text x="130" y="1685">rpromoter</text>
</g>
<path d="M200 1681a10 10 0 0 0 10 -10v-1630a10 10 0 0 1 10 -10"></path>
<path d="M40 31a10 10 0 0 1 10 10v1660a10 10 0 0 0 10 10"></path>
<g>
<path d="M60 1711h36"></path>
<path d="M164 1711h36"></path>
<rect x="96" y="1700" width="68" height="22" rx="10" ry="10"></rect>
<text x="130" y="1715">rarrow</text>
</g>
<path d="M200 1711a10 10 0 0 0 10 -10v-1660a10 10 0 0 1 10 -10"></path>
<path d="M40 31a10 10 0 0 1 10 10v1690a10 10 0 0 0 10 10"></path>
<g>
<path d="M60 1741h36"></path>
<path d="M164 1741h36"></path>
<rect x="96" y="1730" width="68" height="22" rx="10" ry="10"></rect>
<text x="130" y="1745">larrow</text>
</g>
<path d="M200 1741a10 10 0 0 0 10 -10v-1690a10 10 0 0 1 10 -10"></path>
<path d="M40 31a10 10 0 0 1 10 10v1720a10 10 0 0 0 10 10"></path>
<g>
<path d="M60 1771h24"></path>
<path d="M176 1771h24"></path>
<rect x="84" y="1760" width="92" height="22" rx="10" ry="10"></rect>
<text x="130" y="1775">lpromoter</text>
</g>
<path d="M200 1771a10 10 0 0 0 10 -10v-1720a10 10 0 0 1 10 -10"></path>
<path d="M40 31a10 10 0 0 1 10 10v1750a10 10 0 0 0 10 10"></path>
<g>
<path d="M60 1801h36"></path>
<path d="M164 1801h36"></path>
<rect x="96" y="1790" width="68" height="22" rx="10" ry="10"></rect>
<text x="130" y="1805">record</text>
</g>
<path d="M200 1801a10 10 0 0 0 10 -10v-1750a10 10 0 0 1 10 -10"></path>
</g>
<path d="M 220 31 h 20 m -10 -10 v 20 m 10 -20 v 20"></path>
</g>
</svg>
