<?xml version="1.0" standalone="no"?>
<!DOCTYPE svg PUBLIC "-//W3C//DTD SVG 1.1//EN"
  "http://www.w3.org/Graphics/SVG/1.1/DTD/svg11.dtd">
<svg xmlns="http://www.w3.org/2000/svg" version="1.1" class="railroad-diagram" width="269" height="182" viewBox="0 0 269 182">
<defs><style type="text/css"><![CDATA[ svg.railroad-diagram {
  background-color: hsl(30,20%,95%);
}
svg.railroad-diagram path {
  stroke-width: 3;
  stroke: black;
  fill: none;
}
svg.railroad-diagram text {
  font: bold 14px monospace;
  text-anchor: middle;
  cursor: pointer;
}
svg.railroad-diagram text.label {
  text-anchor: start;
}
svg.railroad-diagram text.comment {
  font: italic 12px monospace;
}
svg.railroad-diagram rect {
  stroke-width: 3;
  stroke: black;
  fill: hsl(120,100%,90%);
}
 ]]></style></defs>
<g transform="translate(.5 .5)">
<path d="M 20 21 v 20 m 10 -20 v 20 m -10 -10 h 20.5"></path>
<g>
<path d="M40 31h0"></path>
<path d="M228 31h0"></path>
<path d="M40 31h20"></path>
<g>
<path d="M60 31h48"></path>
<path d="M160 31h48"></path>
<rect x="108" y="20" width="52" height="22"></rect>
<text x="134" y="35">Expr</text>
</g>
<path d="M208 31h20"></path>
<path d="M40 31a10 10 0 0 1 10 10v10a10 10 0 0 0 10 10"></path>
<g>
<path d="M60 61h0"></path>
<path d="M208 61h0"></path>
<rect x="60" y="50" width="148" height="22"></rect>
<text x="134" y="65">StateDeclaration</text>
</g>
<path d="M208 61a10 10 0 0 0 10 -10v-10a10 10 0 0 1 10 -10"></path>
<path d="M40 31a10 10 0 0 1 10 10v40a10 10 0 0 0 10 10"></path>
<g>
<path d="M60 91h28"></path>
<path d="M180 91h28"></path>
<rect x="88" y="80" width="92" height="22"></rect>
<text x="134" y="95">NamedList</text>
</g>
<path d="M208 91a10 10 0 0 0 10 -10v-40a10 10 0 0 1 10 -10"></path>
<path d="M40 31a10 10 0 0 1 10 10v70a10 10 0 0 0 10 10"></path>
<g>
<path d="M60 121h0"></path>
<path d="M208 121h0"></path>
<rect x="60" y="110" width="148" height="22"></rect>
<text x="134" y="125">MachineAttribute</text>
</g>
<path d="M208 121a10 10 0 0 0 10 -10v-70a10 10 0 0 1 10 -10"></path>
<path d="M40 31a10 10 0 0 1 10 10v100a10 10 0 0 0 10 10"></path>
<g>
<path d="M60 151h12"></path>
<path d="M196 151h12"></path>
<rect x="72" y="140" width="124" height="22"></rect>
<text x="134" y="155">MachineConfig</text>
</g>
<path d="M208 151a10 10 0 0 0 10 -10v-100a10 10 0 0 1 10 -10"></path>
</g>
<path d="M 228 31 h 20 m -10 -10 v 20 m 10 -20 v 20"></path>
</g>
</svg>
