<?xml version="1.0" standalone="no"?>
<!DOCTYPE svg PUBLIC "-//W3C//DTD SVG 1.1//EN"
  "http://www.w3.org/Graphics/SVG/1.1/DTD/svg11.dtd">
<svg xmlns="http://www.w3.org/2000/svg" version="1.1" class="railroad-diagram" width="221" height="632" viewBox="0 0 221 632">
<defs><style type="text/css"><![CDATA[ svg.railroad-diagram {
  background-color: hsl(30,20%,95%);
}
svg.railroad-diagram path {
  stroke-width: 3;
  stroke: black;
  fill: none;
}
svg.railroad-diagram text {
  font: bold 14px monospace;
  text-anchor: middle;
  cursor: pointer;
}
svg.railroad-diagram text.label {
  text-anchor: start;
}
svg.railroad-diagram text.comment {
  font: italic 12px monospace;
}
svg.railroad-diagram rect {
  stroke-width: 3;
  stroke: black;
  fill: hsl(120,100%,90%);
}
 ]]></style></defs>
<g transform="translate(.5 .5)">
<path d="M 20 21 v 20 m 10 -20 v 20 m -10 -10 h 20.5"></path>
<g>
<path d="M40 31h0"></path>
<path d="M180 31h0"></path>
<path d="M40 31h20"></path>
<g>
<path d="M60 31h24"></path>
<path d="M136 31h24"></path>
<rect x="84" y="20" width="52" height="22" rx="10" ry="10"></rect>
<text x="110" y="35">hsts</text>
</g>
<path d="M160 31h20"></path>
<path d="M40 31a10 10 0 0 1 10 10v10a10 10 0 0 0 10 10"></path>
<g>
<path d="M60 61h24"></path>
<path d="M136 61h24"></path>
<rect x="84" y="50" width="52" height="22" rx="10" ry="10"></rect>
<text x="110" y="65">http</text>
</g>
<path d="M160 61a10 10 0 0 0 10 -10v-10a10 10 0 0 1 10 -10"></path>
<path d="M40 31a10 10 0 0 1 10 10v40a10 10 0 0 0 10 10"></path>
<g>
<path d="M60 91h20"></path>
<path d="M140 91h20"></path>
<rect x="80" y="80" width="60" height="22" rx="10" ry="10"></rect>
<text x="110" y="95">https</text>
</g>
<path d="M160 91a10 10 0 0 0 10 -10v-40a10 10 0 0 1 10 -10"></path>
<path d="M40 31a10 10 0 0 1 10 10v70a10 10 0 0 0 10 10"></path>
<g>
<path d="M60 121h24"></path>
<path d="M136 121h24"></path>
<rect x="84" y="110" width="52" height="22" rx="10" ry="10"></rect>
<text x="110" y="125">hxxp</text>
</g>
<path d="M160 121a10 10 0 0 0 10 -10v-70a10 10 0 0 1 10 -10"></path>
<path d="M40 31a10 10 0 0 1 10 10v100a10 10 0 0 0 10 10"></path>
<g>
<path d="M60 151h20"></path>
<path d="M140 151h20"></path>
<rect x="80" y="140" width="60" height="22" rx="10" ry="10"></rect>
<text x="110" y="155">hxxps</text>
</g>
<path d="M160 151a10 10 0 0 0 10 -10v-100a10 10 0 0 1 10 -10"></path>
<path d="M40 31a10 10 0 0 1 10 10v130a10 10 0 0 0 10 10"></path>
<g>
<path d="M60 181h20"></path>
<path d="M140 181h20"></path>
<rect x="80" y="170" width="60" height="22" rx="10" ry="10"></rect>
<text x="110" y="185">shttp</text>
</g>
<path d="M160 181a10 10 0 0 0 10 -10v-130a10 10 0 0 1 10 -10"></path>
<path d="M40 31a10 10 0 0 1 10 10v160a10 10 0 0 0 10 10"></path>
<g>
<path d="M60 211h28"></path>
<path d="M132 211h28"></path>
<rect x="88" y="200" width="44" height="22" rx="10" ry="10"></rect>
<text x="110" y="215">ftp</text>
</g>
<path d="M160 211a10 10 0 0 0 10 -10v-160a10 10 0 0 1 10 -10"></path>
<path d="M40 31a10 10 0 0 1 10 10v190a10 10 0 0 0 10 10"></path>
<g>
<path d="M60 241h24"></path>
<path d="M136 241h24"></path>
<rect x="84" y="230" width="52" height="22" rx="10" ry="10"></rect>
<text x="110" y="245">sftp</text>
</g>
<path d="M160 241a10 10 0 0 0 10 -10v-190a10 10 0 0 1 10 -10"></path>
<path d="M40 31a10 10 0 0 1 10 10v220a10 10 0 0 0 10 10"></path>
<g>
<path d="M60 271h20"></path>
<path d="M140 271h20"></path>
<rect x="80" y="260" width="60" height="22" rx="10" ry="10"></rect>
<text x="110" y="275">rsync</text>
</g>
<path d="M160 271a10 10 0 0 0 10 -10v-220a10 10 0 0 1 10 -10"></path>
<path d="M40 31a10 10 0 0 1 10 10v250a10 10 0 0 0 10 10"></path>
<g>
<path d="M60 301h24"></path>
<path d="M136 301h24"></path>
<rect x="84" y="290" width="52" height="22" rx="10" ry="10"></rect>
<text x="110" y="305">tftp</text>
</g>
<path d="M160 301a10 10 0 0 0 10 -10v-250a10 10 0 0 1 10 -10"></path>
<path d="M40 31a10 10 0 0 1 10 10v280a10 10 0 0 0 10 10"></path>
<g>
<path d="M60 331h28"></path>
<path d="M132 331h28"></path>
<rect x="88" y="320" width="44" height="22" rx="10" ry="10"></rect>
<text x="110" y="335">git</text>
</g>
<path d="M160 331a10 10 0 0 0 10 -10v-280a10 10 0 0 1 10 -10"></path>
<path d="M40 31a10 10 0 0 1 10 10v310a10 10 0 0 0 10 10"></path>
<g>
<path d="M60 361h28"></path>
<path d="M132 361h28"></path>
<rect x="88" y="350" width="44" height="22" rx="10" ry="10"></rect>
<text x="110" y="365">svn</text>
</g>
<path d="M160 361a10 10 0 0 0 10 -10v-310a10 10 0 0 1 10 -10"></path>
<path d="M40 31a10 10 0 0 1 10 10v340a10 10 0 0 0 10 10"></path>
<g>
<path d="M60 391h24"></path>
<path d="M136 391h24"></path>
<rect x="84" y="380" width="52" height="22" rx="10" ry="10"></rect>
<text x="110" y="395">file</text>
</g>
<path d="M160 391a10 10 0 0 0 10 -10v-340a10 10 0 0 1 10 -10"></path>
<path d="M40 31a10 10 0 0 1 10 10v370a10 10 0 0 0 10 10"></path>
<g>
<path d="M60 421h0"></path>
<path d="M160 421h0"></path>
<rect x="60" y="410" width="100" height="22" rx="10" ry="10"></rect>
<text x="110" y="425">filesystem</text>
</g>
<path d="M160 421a10 10 0 0 0 10 -10v-370a10 10 0 0 1 10 -10"></path>
<path d="M40 31a10 10 0 0 1 10 10v400a10 10 0 0 0 10 10"></path>
<g>
<path d="M60 451h28"></path>
<path d="M132 451h28"></path>
<rect x="88" y="440" width="44" height="22" rx="10" ry="10"></rect>
<text x="110" y="455">res</text>
</g>
<path d="M160 451a10 10 0 0 0 10 -10v-400a10 10 0 0 1 10 -10"></path>
<path d="M40 31a10 10 0 0 1 10 10v430a10 10 0 0 0 10 10"></path>
<g>
<path d="M60 481h8"></path>
<path d="M152 481h8"></path>
<rect x="68" y="470" width="84" height="22" rx="10" ry="10"></rect>
<text x="110" y="485">resource</text>
</g>
<path d="M160 481a10 10 0 0 0 10 -10v-430a10 10 0 0 1 10 -10"></path>
<path d="M40 31a10 10 0 0 1 10 10v460a10 10 0 0 0 10 10"></path>
<g>
<path d="M60 511h12"></path>
<path d="M148 511h12"></path>
<rect x="72" y="500" width="76" height="22" rx="10" ry="10"></rect>
<text x="110" y="515">appdata</text>
</g>
<path d="M160 511a10 10 0 0 0 10 -10v-460a10 10 0 0 1 10 -10"></path>
<path d="M40 31a10 10 0 0 1 10 10v490a10 10 0 0 0 10 10"></path>
<g>
<path d="M60 541h24"></path>
<path d="M136 541h24"></path>
<rect x="84" y="530" width="52" height="22" rx="10" ry="10"></rect>
<text x="110" y="545">data</text>
</g>
<path d="M160 541a10 10 0 0 0 10 -10v-490a10 10 0 0 1 10 -10"></path>
<path d="M40 31a10 10 0 0 1 10 10v520a10 10 0 0 0 10 10"></path>
<g>
<path d="M60 571h20"></path>
<path d="M140 571h20"></path>
<rect x="80" y="560" width="60" height="22" rx="10" ry="10"></rect>
<text x="110" y="575">redis</text>
</g>
<path d="M160 571a10 10 0 0 0 10 -10v-520a10 10 0 0 1 10 -10"></path>
<path d="M40 31a10 10 0 0 1 10 10v550a10 10 0 0 0 10 10"></path>
<g>
<path d="M60 601h12"></path>
<path d="M148 601h12"></path>
<rect x="72" y="590" width="76" height="22" rx="10" ry="10"></rect>
<text x="110" y="605">service</text>
</g>
<path d="M160 601a10 10 0 0 0 10 -10v-550a10 10 0 0 1 10 -10"></path>
</g>
<path d="M 180 31 h 20 m -10 -10 v 20 m 10 -20 v 20"></path>
</g>
</svg>
