<?xml version="1.0" standalone="no"?>
<!DOCTYPE svg PUBLIC "-//W3C//DTD SVG 1.1//EN"
  "http://www.w3.org/Graphics/SVG/1.1/DTD/svg11.dtd">
<svg xmlns="http://www.w3.org/2000/svg" version="1.1" class="railroad-diagram" width="485" height="72" viewBox="0 0 485 72">
<defs><style type="text/css"><![CDATA[ svg.railroad-diagram {
  background-color: hsl(30,20%,95%);
}
svg.railroad-diagram path {
  stroke-width: 3;
  stroke: black;
  fill: none;
}
svg.railroad-diagram text {
  font: bold 14px monospace;
  text-anchor: middle;
  cursor: pointer;
}
svg.railroad-diagram text.label {
  text-anchor: start;
}
svg.railroad-diagram text.comment {
  font: italic 12px monospace;
}
svg.railroad-diagram rect {
  stroke-width: 3;
  stroke: black;
  fill: hsl(120,100%,90%);
}
 ]]></style></defs>
<g transform="translate(.5 .5)">
<path d="M 20 31 v 20 m 10 -20 v 20 m -10 -10 h 20.5"></path>
<g>
<path d="M40 41h0"></path>
<path d="M444 41h0"></path>
<path d="M40 41h10"></path>
<g>
<path d="M50 41h0"></path>
<path d="M78 41h0"></path>
<rect x="50" y="30" width="28" height="22" rx="10" ry="10"></rect>
<text x="64" y="45">{</text>
</g>
<path d="M78 41h10"></path>
<g>
<path d="M88 41h0"></path>
<path d="M172 41h0"></path>
<path d="M88 41a10 10 0 0 0 10 -10v0a10 10 0 0 1 10 -10"></path>
<g>
<path d="M108 21h44"></path>
</g>
<path d="M152 21a10 10 0 0 1 10 10v0a10 10 0 0 0 10 10"></path>
<path d="M88 41h20"></path>
<g>
<path d="M108 41h0"></path>
<path d="M152 41h0"></path>
<rect x="108" y="30" width="44" height="22"></rect>
<text x="130" y="45">&#95;WS</text>
</g>
<path d="M152 41h20"></path>
</g>
<g>
<path d="M172 41h0"></path>
<path d="M312 41h0"></path>
<path d="M172 41a10 10 0 0 0 10 -10v0a10 10 0 0 1 10 -10"></path>
<g>
<path d="M192 21h100"></path>
</g>
<path d="M292 21a10 10 0 0 1 10 10v0a10 10 0 0 0 10 10"></path>
<path d="M172 41h20"></path>
<g>
<path d="M192 41h0"></path>
<path d="M292 41h0"></path>
<rect x="192" y="30" width="100" height="22"></rect>
<text x="242" y="45">ArrowItems</text>
</g>
<path d="M292 41h20"></path>
</g>
<g>
<path d="M312 41h0"></path>
<path d="M396 41h0"></path>
<path d="M312 41a10 10 0 0 0 10 -10v0a10 10 0 0 1 10 -10"></path>
<g>
<path d="M332 21h44"></path>
</g>
<path d="M376 21a10 10 0 0 1 10 10v0a10 10 0 0 0 10 10"></path>
<path d="M312 41h20"></path>
<g>
<path d="M332 41h0"></path>
<path d="M376 41h0"></path>
<rect x="332" y="30" width="44" height="22"></rect>
<text x="354" y="45">&#95;WS</text>
</g>
<path d="M376 41h20"></path>
</g>
<path d="M396 41h10"></path>
<g>
<path d="M406 41h0"></path>
<path d="M434 41h0"></path>
<rect x="406" y="30" width="28" height="22" rx="10" ry="10"></rect>
<text x="420" y="45">}</text>
</g>
<path d="M434 41h10"></path>
</g>
<path d="M 444 41 h 20 m -10 -10 v 20 m 10 -20 v 20"></path>
</g>
</svg>
