<?xml version="1.0" standalone="no"?>
<!DOCTYPE svg PUBLIC "-//W3C//DTD SVG 1.1//EN"
  "http://www.w3.org/Graphics/SVG/1.1/DTD/svg11.dtd">
<svg xmlns="http://www.w3.org/2000/svg" version="1.1" class="railroad-diagram" width="637" height="81" viewBox="0 0 637 81">
<defs><style type="text/css"><![CDATA[ svg.railroad-diagram {
  background-color: hsl(30,20%,95%);
}
svg.railroad-diagram path {
  stroke-width: 3;
  stroke: black;
  fill: none;
}
svg.railroad-diagram text {
  font: bold 14px monospace;
  text-anchor: middle;
  cursor: pointer;
}
svg.railroad-diagram text.label {
  text-anchor: start;
}
svg.railroad-diagram text.comment {
  font: italic 12px monospace;
}
svg.railroad-diagram rect {
  stroke-width: 3;
  stroke: black;
  fill: hsl(120,100%,90%);
}
 ]]></style></defs>
<g transform="translate(.5 .5)">
<path d="M 20 31 v 20 m 10 -20 v 20 m -10 -10 h 20.5"></path>
<g>
<path d="M40 41h0"></path>
<path d="M596 41h0"></path>
<path d="M40 41h10"></path>
<g>
<path d="M50 41h0"></path>
<path d="M78 41h0"></path>
<rect x="50" y="30" width="28" height="22" rx="10" ry="10"></rect>
<text x="64" y="45">{</text>
</g>
<path d="M78 41h10"></path>
<g>
<path d="M88 41h0"></path>
<path d="M172 41h0"></path>
<path d="M88 41a10 10 0 0 0 10 -10v0a10 10 0 0 1 10 -10"></path>
<g>
<path d="M108 21h44"></path>
</g>
<path d="M152 21a10 10 0 0 1 10 10v0a10 10 0 0 0 10 10"></path>
<path d="M88 41h20"></path>
<g>
<path d="M108 41h0"></path>
<path d="M152 41h0"></path>
<rect x="108" y="30" width="44" height="22"></rect>
<text x="130" y="45">&#95;WS</text>
</g>
<path d="M152 41h20"></path>
</g>
<g>
<path d="M172 41h0"></path>
<path d="M380 41h0"></path>
<path d="M172 41a10 10 0 0 0 10 -10v0a10 10 0 0 1 10 -10"></path>
<g>
<path d="M192 21h168"></path>
</g>
<path d="M360 21a10 10 0 0 1 10 10v0a10 10 0 0 0 10 10"></path>
<path d="M172 41h20"></path>
<g>
<path d="M192 41h0"></path>
<path d="M360 41h0"></path>
<path d="M192 41h10"></path>
<g>
<path d="M202 41h0"></path>
<path d="M350 41h0"></path>
<rect x="202" y="30" width="148" height="22"></rect>
<text x="276" y="45">ConfigStateItems</text>
</g>
<path d="M350 41h10"></path>
<path d="M202 41a10 10 0 0 0 -10 10v0a10 10 0 0 0 10 10"></path>
<g>
<path d="M202 61h148"></path>
</g>
<path d="M350 61a10 10 0 0 0 10 -10v0a10 10 0 0 0 -10 -10"></path>
</g>
<path d="M360 41h20"></path>
</g>
<g>
<path d="M380 41h0"></path>
<path d="M464 41h0"></path>
<path d="M380 41a10 10 0 0 0 10 -10v0a10 10 0 0 1 10 -10"></path>
<g>
<path d="M400 21h44"></path>
</g>
<path d="M444 21a10 10 0 0 1 10 10v0a10 10 0 0 0 10 10"></path>
<path d="M380 41h20"></path>
<g>
<path d="M400 41h0"></path>
<path d="M444 41h0"></path>
<rect x="400" y="30" width="44" height="22"></rect>
<text x="422" y="45">&#95;WS</text>
</g>
<path d="M444 41h20"></path>
</g>
<path d="M464 41h10"></path>
<g>
<path d="M474 41h0"></path>
<path d="M502 41h0"></path>
<rect x="474" y="30" width="28" height="22" rx="10" ry="10"></rect>
<text x="488" y="45">}</text>
</g>
<path d="M502 41h10"></path>
<g>
<path d="M512 41h0"></path>
<path d="M596 41h0"></path>
<path d="M512 41a10 10 0 0 0 10 -10v0a10 10 0 0 1 10 -10"></path>
<g>
<path d="M532 21h44"></path>
</g>
<path d="M576 21a10 10 0 0 1 10 10v0a10 10 0 0 0 10 10"></path>
<path d="M512 41h20"></path>
<g>
<path d="M532 41h0"></path>
<path d="M576 41h0"></path>
<rect x="532" y="30" width="44" height="22"></rect>
<text x="554" y="45">&#95;WS</text>
</g>
<path d="M576 41h20"></path>
</g>
</g>
<path d="M 596 41 h 20 m -10 -10 v 20 m 10 -20 v 20"></path>
</g>
</svg>
