<?xml version="1.0" standalone="no"?>
<!DOCTYPE svg PUBLIC "-//W3C//DTD SVG 1.1//EN"
  "http://www.w3.org/Graphics/SVG/1.1/DTD/svg11.dtd">
<svg xmlns="http://www.w3.org/2000/svg" version="1.1" class="railroad-diagram" width="529" height="72" viewBox="0 0 529 72">
<defs><style type="text/css"><![CDATA[ svg.railroad-diagram {
  background-color: hsl(30,20%,95%);
}
svg.railroad-diagram path {
  stroke-width: 3;
  stroke: black;
  fill: none;
}
svg.railroad-diagram text {
  font: bold 14px monospace;
  text-anchor: middle;
  cursor: pointer;
}
svg.railroad-diagram text.label {
  text-anchor: start;
}
svg.railroad-diagram text.comment {
  font: italic 12px monospace;
}
svg.railroad-diagram rect {
  stroke-width: 3;
  stroke: black;
  fill: hsl(120,100%,90%);
}
 ]]></style></defs>
<g transform="translate(.5 .5)">
<path d="M 20 31 v 20 m 10 -20 v 20 m -10 -10 h 20.5"></path>
<g>
<path d="M40 41h0"></path>
<path d="M488 41h0"></path>
<path d="M40 41h10"></path>
<g>
<path d="M50 41h0"></path>
<path d="M262 41h0"></path>
<rect x="50" y="30" width="212" height="22"></rect>
<text x="156" y="45">&#95;StateItemThingKey&#95;Shape</text>
</g>
<path d="M262 41h10"></path>
<g>
<path d="M272 41h0"></path>
<path d="M356 41h0"></path>
<path d="M272 41a10 10 0 0 0 10 -10v0a10 10 0 0 1 10 -10"></path>
<g>
<path d="M292 21h44"></path>
</g>
<path d="M336 21a10 10 0 0 1 10 10v0a10 10 0 0 0 10 10"></path>
<path d="M272 41h20"></path>
<g>
<path d="M292 41h0"></path>
<path d="M336 41h0"></path>
<rect x="292" y="30" width="44" height="22"></rect>
<text x="314" y="45">&#95;WS</text>
</g>
<path d="M336 41h20"></path>
</g>
<path d="M356 41h10"></path>
<g>
<path d="M366 41h0"></path>
<path d="M394 41h0"></path>
<rect x="366" y="30" width="28" height="22" rx="10" ry="10"></rect>
<text x="380" y="45">;</text>
</g>
<path d="M394 41h10"></path>
<g>
<path d="M404 41h0"></path>
<path d="M488 41h0"></path>
<path d="M404 41a10 10 0 0 0 10 -10v0a10 10 0 0 1 10 -10"></path>
<g>
<path d="M424 21h44"></path>
</g>
<path d="M468 21a10 10 0 0 1 10 10v0a10 10 0 0 0 10 10"></path>
<path d="M404 41h20"></path>
<g>
<path d="M424 41h0"></path>
<path d="M468 41h0"></path>
<rect x="424" y="30" width="44" height="22"></rect>
<text x="446" y="45">&#95;WS</text>
</g>
<path d="M468 41h20"></path>
</g>
</g>
<path d="M 488 41 h 20 m -10 -10 v 20 m 10 -20 v 20"></path>
</g>
</svg>
