<?xml version="1.0" standalone="no"?>
<!DOCTYPE svg PUBLIC "-//W3C//DTD SVG 1.1//EN"
  "http://www.w3.org/Graphics/SVG/1.1/DTD/svg11.dtd">
<svg xmlns="http://www.w3.org/2000/svg" version="1.1" class="railroad-diagram" width="801" height="72" viewBox="0 0 801 72">
<defs><style type="text/css"><![CDATA[ svg.railroad-diagram {
  background-color: hsl(30,20%,95%);
}
svg.railroad-diagram path {
  stroke-width: 3;
  stroke: black;
  fill: none;
}
svg.railroad-diagram text {
  font: bold 14px monospace;
  text-anchor: middle;
  cursor: pointer;
}
svg.railroad-diagram text.label {
  text-anchor: start;
}
svg.railroad-diagram text.comment {
  font: italic 12px monospace;
}
svg.railroad-diagram rect {
  stroke-width: 3;
  stroke: black;
  fill: hsl(120,100%,90%);
}
 ]]></style></defs>
<g transform="translate(.5 .5)">
<path d="M 20 31 v 20 m 10 -20 v 20 m -10 -10 h 20.5"></path>
<g>
<path d="M40 41h0"></path>
<path d="M760 41h0"></path>
<path d="M40 41h10"></path>
<g>
<path d="M50 41h0"></path>
<path d="M166 41h0"></path>
<rect x="50" y="30" width="116" height="22" rx="10" ry="10"></rect>
<text x="108" y="45">graph&#95;layout</text>
</g>
<path d="M166 41h10"></path>
<g>
<path d="M176 41h0"></path>
<path d="M260 41h0"></path>
<path d="M176 41a10 10 0 0 0 10 -10v0a10 10 0 0 1 10 -10"></path>
<g>
<path d="M196 21h44"></path>
</g>
<path d="M240 21a10 10 0 0 1 10 10v0a10 10 0 0 0 10 10"></path>
<path d="M176 41h20"></path>
<g>
<path d="M196 41h0"></path>
<path d="M240 41h0"></path>
<rect x="196" y="30" width="44" height="22"></rect>
<text x="218" y="45">&#95;WS</text>
</g>
<path d="M240 41h20"></path>
</g>
<path d="M260 41h10"></path>
<g>
<path d="M270 41h0"></path>
<path d="M298 41h0"></path>
<rect x="270" y="30" width="28" height="22" rx="10" ry="10"></rect>
<text x="284" y="45">:</text>
</g>
<path d="M298 41h10"></path>
<g>
<path d="M308 41h0"></path>
<path d="M392 41h0"></path>
<path d="M308 41a10 10 0 0 0 10 -10v0a10 10 0 0 1 10 -10"></path>
<g>
<path d="M328 21h44"></path>
</g>
<path d="M372 21a10 10 0 0 1 10 10v0a10 10 0 0 0 10 10"></path>
<path d="M308 41h20"></path>
<g>
<path d="M328 41h0"></path>
<path d="M372 41h0"></path>
<rect x="328" y="30" width="44" height="22"></rect>
<text x="350" y="45">&#95;WS</text>
</g>
<path d="M372 41h20"></path>
</g>
<path d="M392 41h10"></path>
<g>
<path d="M402 41h0"></path>
<path d="M534 41h0"></path>
<rect x="402" y="30" width="132" height="22"></rect>
<text x="468" y="45">GvizLayoutType</text>
</g>
<path d="M534 41h10"></path>
<g>
<path d="M544 41h0"></path>
<path d="M628 41h0"></path>
<path d="M544 41a10 10 0 0 0 10 -10v0a10 10 0 0 1 10 -10"></path>
<g>
<path d="M564 21h44"></path>
</g>
<path d="M608 21a10 10 0 0 1 10 10v0a10 10 0 0 0 10 10"></path>
<path d="M544 41h20"></path>
<g>
<path d="M564 41h0"></path>
<path d="M608 41h0"></path>
<rect x="564" y="30" width="44" height="22"></rect>
<text x="586" y="45">&#95;WS</text>
</g>
<path d="M608 41h20"></path>
</g>
<path d="M628 41h10"></path>
<g>
<path d="M638 41h0"></path>
<path d="M666 41h0"></path>
<rect x="638" y="30" width="28" height="22" rx="10" ry="10"></rect>
<text x="652" y="45">;</text>
</g>
<path d="M666 41h10"></path>
<g>
<path d="M676 41h0"></path>
<path d="M760 41h0"></path>
<path d="M676 41a10 10 0 0 0 10 -10v0a10 10 0 0 1 10 -10"></path>
<g>
<path d="M696 21h44"></path>
</g>
<path d="M740 21a10 10 0 0 1 10 10v0a10 10 0 0 0 10 10"></path>
<path d="M676 41h20"></path>
<g>
<path d="M696 41h0"></path>
<path d="M740 41h0"></path>
<rect x="696" y="30" width="44" height="22"></rect>
<text x="718" y="45">&#95;WS</text>
</g>
<path d="M740 41h20"></path>
</g>
</g>
<path d="M 760 41 h 20 m -10 -10 v 20 m 10 -20 v 20"></path>
</g>
</svg>
