<?xml version="1.0" standalone="no"?>
<!DOCTYPE svg PUBLIC "-//W3C//DTD SVG 1.1//EN"
  "http://www.w3.org/Graphics/SVG/1.1/DTD/svg11.dtd">
<svg xmlns="http://www.w3.org/2000/svg" version="1.1" class="railroad-diagram" width="293" height="152" viewBox="0 0 293 152">
<defs><style type="text/css"><![CDATA[ svg.railroad-diagram {
  background-color: hsl(30,20%,95%);
}
svg.railroad-diagram path {
  stroke-width: 3;
  stroke: black;
  fill: none;
}
svg.railroad-diagram text {
  font: bold 14px monospace;
  text-anchor: middle;
  cursor: pointer;
}
svg.railroad-diagram text.label {
  text-anchor: start;
}
svg.railroad-diagram text.comment {
  font: italic 12px monospace;
}
svg.railroad-diagram rect {
  stroke-width: 3;
  stroke: black;
  fill: hsl(120,100%,90%);
}
 ]]></style></defs>
<g transform="translate(.5 .5)">
<path d="M 20 21 v 20 m 10 -20 v 20 m -10 -10 h 20.5"></path>
<g>
<path d="M40 31h0"></path>
<path d="M252 31h0"></path>
<path d="M40 31h20"></path>
<g>
<path d="M60 31h20"></path>
<path d="M212 31h20"></path>
<rect x="80" y="20" width="132" height="22" rx="10" ry="10"></rect>
<text x="146" y="35">machine&#95;author</text>
</g>
<path d="M232 31h20"></path>
<path d="M40 31a10 10 0 0 1 10 10v10a10 10 0 0 0 10 10"></path>
<g>
<path d="M60 61h0"></path>
<path d="M232 61h0"></path>
<rect x="60" y="50" width="172" height="22" rx="10" ry="10"></rect>
<text x="146" y="65">machine&#95;contributor</text>
</g>
<path d="M232 61a10 10 0 0 0 10 -10v-10a10 10 0 0 1 10 -10"></path>
<path d="M40 31a10 10 0 0 1 10 10v40a10 10 0 0 0 10 10"></path>
<g>
<path d="M60 91h16"></path>
<path d="M216 91h16"></path>
<rect x="76" y="80" width="140" height="22" rx="10" ry="10"></rect>
<text x="146" y="95">machine&#95;comment</text>
</g>
<path d="M232 91a10 10 0 0 0 10 -10v-40a10 10 0 0 1 10 -10"></path>
<path d="M40 31a10 10 0 0 1 10 10v70a10 10 0 0 0 10 10"></path>
<g>
<path d="M60 121h8"></path>
<path d="M224 121h8"></path>
<rect x="68" y="110" width="156" height="22" rx="10" ry="10"></rect>
<text x="146" y="125">machine&#95;reference</text>
</g>
<path d="M232 121a10 10 0 0 0 10 -10v-70a10 10 0 0 1 10 -10"></path>
</g>
<path d="M 252 31 h 20 m -10 -10 v 20 m 10 -20 v 20"></path>
</g>
</svg>
