<?xml version="1.0" standalone="no"?>
<!DOCTYPE svg PUBLIC "-//W3C//DTD SVG 1.1//EN"
  "http://www.w3.org/Graphics/SVG/1.1/DTD/svg11.dtd">
<svg xmlns="http://www.w3.org/2000/svg" version="1.1" class="railroad-diagram" width="313" height="392" viewBox="0 0 313 392">
<defs><style type="text/css"><![CDATA[ svg.railroad-diagram {
  background-color: hsl(30,20%,95%);
}
svg.railroad-diagram path {
  stroke-width: 3;
  stroke: black;
  fill: none;
}
svg.railroad-diagram text {
  font: bold 14px monospace;
  text-anchor: middle;
  cursor: pointer;
}
svg.railroad-diagram text.label {
  text-anchor: start;
}
svg.railroad-diagram text.comment {
  font: italic 12px monospace;
}
svg.railroad-diagram rect {
  stroke-width: 3;
  stroke: black;
  fill: hsl(120,100%,90%);
}
 ]]></style></defs>
<g transform="translate(.5 .5)">
<path d="M 20 21 v 20 m 10 -20 v 20 m -10 -10 h 20.5"></path>
<g>
<path d="M40 31h0"></path>
<path d="M272 31h0"></path>
<path d="M40 31h20"></path>
<g>
<path d="M60 31h74"></path>
<path d="M178 31h74"></path>
<rect x="134" y="20" width="44" height="22" rx="10" ry="10"></rect>
<text x="156" y="35">MIT</text>
</g>
<path d="M252 31h20"></path>
<path d="M40 31a10 10 0 0 1 10 10v10a10 10 0 0 0 10 10"></path>
<g>
<path d="M60 61h38"></path>
<path d="M214 61h38"></path>
<rect x="98" y="50" width="116" height="22" rx="10" ry="10"></rect>
<text x="156" y="65">BSD 2-clause</text>
</g>
<path d="M252 61a10 10 0 0 0 10 -10v-10a10 10 0 0 1 10 -10"></path>
<path d="M40 31a10 10 0 0 1 10 10v40a10 10 0 0 0 10 10"></path>
<g>
<path d="M60 91h38"></path>
<path d="M214 91h38"></path>
<rect x="98" y="80" width="116" height="22" rx="10" ry="10"></rect>
<text x="156" y="95">BSD 3-clause</text>
</g>
<path d="M252 91a10 10 0 0 0 10 -10v-40a10 10 0 0 1 10 -10"></path>
<path d="M40 31a10 10 0 0 1 10 10v70a10 10 0 0 0 10 10"></path>
<g>
<path d="M60 121h46"></path>
<path d="M206 121h46"></path>
<rect x="106" y="110" width="100" height="22" rx="10" ry="10"></rect>
<text x="156" y="125">Apache 2.0</text>
</g>
<path d="M252 121a10 10 0 0 0 10 -10v-70a10 10 0 0 1 10 -10"></path>
<path d="M40 31a10 10 0 0 1 10 10v100a10 10 0 0 0 10 10"></path>
<g>
<path d="M60 151h42"></path>
<path d="M210 151h42"></path>
<rect x="102" y="140" width="108" height="22" rx="10" ry="10"></rect>
<text x="156" y="155">Mozilla 2.0</text>
</g>
<path d="M252 151a10 10 0 0 0 10 -10v-100a10 10 0 0 1 10 -10"></path>
<path d="M40 31a10 10 0 0 1 10 10v130a10 10 0 0 0 10 10"></path>
<g>
<path d="M60 181h34"></path>
<path d="M218 181h34"></path>
<rect x="94" y="170" width="124" height="22" rx="10" ry="10"></rect>
<text x="156" y="185">Public domain</text>
</g>
<path d="M252 181a10 10 0 0 0 10 -10v-130a10 10 0 0 1 10 -10"></path>
<path d="M40 31a10 10 0 0 1 10 10v160a10 10 0 0 0 10 10"></path>
<g>
<path d="M60 211h62"></path>
<path d="M190 211h62"></path>
<rect x="122" y="200" width="68" height="22" rx="10" ry="10"></rect>
<text x="156" y="215">GPL v2</text>
</g>
<path d="M252 211a10 10 0 0 0 10 -10v-160a10 10 0 0 1 10 -10"></path>
<path d="M40 31a10 10 0 0 1 10 10v190a10 10 0 0 0 10 10"></path>
<g>
<path d="M60 241h62"></path>
<path d="M190 241h62"></path>
<rect x="122" y="230" width="68" height="22" rx="10" ry="10"></rect>
<text x="156" y="245">GPL v3</text>
</g>
<path d="M252 241a10 10 0 0 0 10 -10v-190a10 10 0 0 1 10 -10"></path>
<path d="M40 31a10 10 0 0 1 10 10v220a10 10 0 0 0 10 10"></path>
<g>
<path d="M60 271h50"></path>
<path d="M202 271h50"></path>
<rect x="110" y="260" width="92" height="22" rx="10" ry="10"></rect>
<text x="156" y="275">LGPL v2.1</text>
</g>
<path d="M252 271a10 10 0 0 0 10 -10v-220a10 10 0 0 1 10 -10"></path>
<path d="M40 31a10 10 0 0 1 10 10v250a10 10 0 0 0 10 10"></path>
<g>
<path d="M60 301h50"></path>
<path d="M202 301h50"></path>
<rect x="110" y="290" width="92" height="22" rx="10" ry="10"></rect>
<text x="156" y="305">LGPL v3.0</text>
</g>
<path d="M252 301a10 10 0 0 0 10 -10v-250a10 10 0 0 1 10 -10"></path>
<path d="M40 31a10 10 0 0 1 10 10v280a10 10 0 0 0 10 10"></path>
<g>
<path d="M60 331h26"></path>
<path d="M226 331h26"></path>
<rect x="86" y="320" width="140" height="22" rx="10" ry="10"></rect>
<text x="156" y="335">Unknown license</text>
</g>
<path d="M252 331a10 10 0 0 0 10 -10v-280a10 10 0 0 1 10 -10"></path>
<path d="M40 31a10 10 0 0 1 10 10v310a10 10 0 0 0 10 10"></path>
<g>
<path d="M60 361h0"></path>
<path d="M252 361h0"></path>
<path d="M60 361h10"></path>
<g>
<path d="M70 361h0"></path>
<path d="M154 361h0"></path>
<rect x="70" y="350" width="84" height="22" rx="10" ry="10"></rect>
<text x="112" y="365">License </text>
</g>
<path d="M154 361h10"></path>
<path d="M164 361h10"></path>
<g>
<path d="M174 361h0"></path>
<path d="M242 361h0"></path>
<rect x="174" y="350" width="68" height="22"></rect>
<text x="208" y="365">&#95;Label</text>
</g>
<path d="M242 361h10"></path>
</g>
<path d="M252 361a10 10 0 0 0 10 -10v-310a10 10 0 0 1 10 -10"></path>
</g>
<path d="M 272 31 h 20 m -10 -10 v 20 m 10 -20 v 20"></path>
</g>
</svg>
