<?xml version="1.0" standalone="no"?>
<!DOCTYPE svg PUBLIC "-//W3C//DTD SVG 1.1//EN"
  "http://www.w3.org/Graphics/SVG/1.1/DTD/svg11.dtd">
<svg xmlns="http://www.w3.org/2000/svg" version="1.1" class="railroad-diagram" width="825" height="72" viewBox="0 0 825 72">
<defs><style type="text/css"><![CDATA[ svg.railroad-diagram {
  background-color: hsl(30,20%,95%);
}
svg.railroad-diagram path {
  stroke-width: 3;
  stroke: black;
  fill: none;
}
svg.railroad-diagram text {
  font: bold 14px monospace;
  text-anchor: middle;
  cursor: pointer;
}
svg.railroad-diagram text.label {
  text-anchor: start;
}
svg.railroad-diagram text.comment {
  font: italic 12px monospace;
}
svg.railroad-diagram rect {
  stroke-width: 3;
  stroke: black;
  fill: hsl(120,100%,90%);
}
 ]]></style></defs>
<g transform="translate(.5 .5)">
<path d="M 20 31 v 20 m 10 -20 v 20 m -10 -10 h 20.5"></path>
<g>
<path d="M40 41h0"></path>
<path d="M784 41h0"></path>
<path d="M40 41h10"></path>
<g>
<path d="M50 41h0"></path>
<path d="M254 41h0"></path>
<rect x="50" y="30" width="204" height="22"></rect>
<text x="152" y="45">SemverMachineAttributes</text>
</g>
<path d="M254 41h10"></path>
<g>
<path d="M264 41h0"></path>
<path d="M348 41h0"></path>
<path d="M264 41a10 10 0 0 0 10 -10v0a10 10 0 0 1 10 -10"></path>
<g>
<path d="M284 21h44"></path>
</g>
<path d="M328 21a10 10 0 0 1 10 10v0a10 10 0 0 0 10 10"></path>
<path d="M264 41h20"></path>
<g>
<path d="M284 41h0"></path>
<path d="M328 41h0"></path>
<rect x="284" y="30" width="44" height="22"></rect>
<text x="306" y="45">&#95;WS</text>
</g>
<path d="M328 41h20"></path>
</g>
<path d="M348 41h10"></path>
<g>
<path d="M358 41h0"></path>
<path d="M386 41h0"></path>
<rect x="358" y="30" width="28" height="22" rx="10" ry="10"></rect>
<text x="372" y="45">:</text>
</g>
<path d="M386 41h10"></path>
<g>
<path d="M396 41h0"></path>
<path d="M480 41h0"></path>
<path d="M396 41a10 10 0 0 0 10 -10v0a10 10 0 0 1 10 -10"></path>
<g>
<path d="M416 21h44"></path>
</g>
<path d="M460 21a10 10 0 0 1 10 10v0a10 10 0 0 0 10 10"></path>
<path d="M396 41h20"></path>
<g>
<path d="M416 41h0"></path>
<path d="M460 41h0"></path>
<rect x="416" y="30" width="44" height="22"></rect>
<text x="438" y="45">&#95;WS</text>
</g>
<path d="M460 41h20"></path>
</g>
<path d="M480 41h10"></path>
<g>
<path d="M490 41h0"></path>
<path d="M558 41h0"></path>
<rect x="490" y="30" width="68" height="22"></rect>
<text x="524" y="45">SemVer</text>
</g>
<path d="M558 41h10"></path>
<g>
<path d="M568 41h0"></path>
<path d="M652 41h0"></path>
<path d="M568 41a10 10 0 0 0 10 -10v0a10 10 0 0 1 10 -10"></path>
<g>
<path d="M588 21h44"></path>
</g>
<path d="M632 21a10 10 0 0 1 10 10v0a10 10 0 0 0 10 10"></path>
<path d="M568 41h20"></path>
<g>
<path d="M588 41h0"></path>
<path d="M632 41h0"></path>
<rect x="588" y="30" width="44" height="22"></rect>
<text x="610" y="45">&#95;WS</text>
</g>
<path d="M632 41h20"></path>
</g>
<path d="M652 41h10"></path>
<g>
<path d="M662 41h0"></path>
<path d="M690 41h0"></path>
<rect x="662" y="30" width="28" height="22" rx="10" ry="10"></rect>
<text x="676" y="45">;</text>
</g>
<path d="M690 41h10"></path>
<g>
<path d="M700 41h0"></path>
<path d="M784 41h0"></path>
<path d="M700 41a10 10 0 0 0 10 -10v0a10 10 0 0 1 10 -10"></path>
<g>
<path d="M720 21h44"></path>
</g>
<path d="M764 21a10 10 0 0 1 10 10v0a10 10 0 0 0 10 10"></path>
<path d="M700 41h20"></path>
<g>
<path d="M720 41h0"></path>
<path d="M764 41h0"></path>
<rect x="720" y="30" width="44" height="22"></rect>
<text x="742" y="45">&#95;WS</text>
</g>
<path d="M764 41h20"></path>
</g>
</g>
<path d="M 784 41 h 20 m -10 -10 v 20 m 10 -20 v 20"></path>
</g>
</svg>
