<?xml version="1.0" standalone="no"?>
<!DOCTYPE svg PUBLIC "-//W3C//DTD SVG 1.1//EN"
  "http://www.w3.org/Graphics/SVG/1.1/DTD/svg11.dtd">
<svg xmlns="http://www.w3.org/2000/svg" version="1.1" class="railroad-diagram" width="713" height="72" viewBox="0 0 713 72">
<defs><style type="text/css"><![CDATA[ svg.railroad-diagram {
  background-color: hsl(30,20%,95%);
}
svg.railroad-diagram path {
  stroke-width: 3;
  stroke: black;
  fill: none;
}
svg.railroad-diagram text {
  font: bold 14px monospace;
  text-anchor: middle;
  cursor: pointer;
}
svg.railroad-diagram text.label {
  text-anchor: start;
}
svg.railroad-diagram text.comment {
  font: italic 12px monospace;
}
svg.railroad-diagram rect {
  stroke-width: 3;
  stroke: black;
  fill: hsl(120,100%,90%);
}
 ]]></style></defs>
<g transform="translate(.5 .5)">
<path d="M 20 31 v 20 m 10 -20 v 20 m -10 -10 h 20.5"></path>
<g>
<path d="M40 41h0"></path>
<path d="M672 41h0"></path>
<path d="M40 41h10"></path>
<g>
<path d="M50 41h0"></path>
<path d="M150 41h0"></path>
<rect x="50" y="30" width="100" height="22" rx="10" ry="10"></rect>
<text x="100" y="45">edge&#95;color</text>
</g>
<path d="M150 41h10"></path>
<g>
<path d="M160 41h0"></path>
<path d="M244 41h0"></path>
<path d="M160 41a10 10 0 0 0 10 -10v0a10 10 0 0 1 10 -10"></path>
<g>
<path d="M180 21h44"></path>
</g>
<path d="M224 21a10 10 0 0 1 10 10v0a10 10 0 0 0 10 10"></path>
<path d="M160 41h20"></path>
<g>
<path d="M180 41h0"></path>
<path d="M224 41h0"></path>
<rect x="180" y="30" width="44" height="22"></rect>
<text x="202" y="45">&#95;WS</text>
</g>
<path d="M224 41h20"></path>
</g>
<path d="M244 41h10"></path>
<g>
<path d="M254 41h0"></path>
<path d="M282 41h0"></path>
<rect x="254" y="30" width="28" height="22" rx="10" ry="10"></rect>
<text x="268" y="45">:</text>
</g>
<path d="M282 41h10"></path>
<g>
<path d="M292 41h0"></path>
<path d="M376 41h0"></path>
<path d="M292 41a10 10 0 0 0 10 -10v0a10 10 0 0 1 10 -10"></path>
<g>
<path d="M312 21h44"></path>
</g>
<path d="M356 21a10 10 0 0 1 10 10v0a10 10 0 0 0 10 10"></path>
<path d="M292 41h20"></path>
<g>
<path d="M312 41h0"></path>
<path d="M356 41h0"></path>
<rect x="312" y="30" width="44" height="22"></rect>
<text x="334" y="45">&#95;WS</text>
</g>
<path d="M356 41h20"></path>
</g>
<path d="M376 41h10"></path>
<g>
<path d="M386 41h0"></path>
<path d="M446 41h0"></path>
<rect x="386" y="30" width="60" height="22"></rect>
<text x="416" y="45">Color</text>
</g>
<path d="M446 41h10"></path>
<g>
<path d="M456 41h0"></path>
<path d="M540 41h0"></path>
<path d="M456 41a10 10 0 0 0 10 -10v0a10 10 0 0 1 10 -10"></path>
<g>
<path d="M476 21h44"></path>
</g>
<path d="M520 21a10 10 0 0 1 10 10v0a10 10 0 0 0 10 10"></path>
<path d="M456 41h20"></path>
<g>
<path d="M476 41h0"></path>
<path d="M520 41h0"></path>
<rect x="476" y="30" width="44" height="22"></rect>
<text x="498" y="45">&#95;WS</text>
</g>
<path d="M520 41h20"></path>
</g>
<path d="M540 41h10"></path>
<g>
<path d="M550 41h0"></path>
<path d="M578 41h0"></path>
<rect x="550" y="30" width="28" height="22" rx="10" ry="10"></rect>
<text x="564" y="45">;</text>
</g>
<path d="M578 41h10"></path>
<g>
<path d="M588 41h0"></path>
<path d="M672 41h0"></path>
<path d="M588 41a10 10 0 0 0 10 -10v0a10 10 0 0 1 10 -10"></path>
<g>
<path d="M608 21h44"></path>
</g>
<path d="M652 21a10 10 0 0 1 10 10v0a10 10 0 0 0 10 10"></path>
<path d="M588 41h20"></path>
<g>
<path d="M608 41h0"></path>
<path d="M652 41h0"></path>
<rect x="608" y="30" width="44" height="22"></rect>
<text x="630" y="45">&#95;WS</text>
</g>
<path d="M652 41h20"></path>
</g>
</g>
<path d="M 672 41 h 20 m -10 -10 v 20 m 10 -20 v 20"></path>
</g>
</svg>
