<?xml version="1.0" standalone="no"?>
<!DOCTYPE svg PUBLIC "-//W3C//DTD SVG 1.1//EN"
  "http://www.w3.org/Graphics/SVG/1.1/DTD/svg11.dtd">
<svg xmlns="http://www.w3.org/2000/svg" version="1.1" class="railroad-diagram" width="793" height="72" viewBox="0 0 793 72">
<defs><style type="text/css"><![CDATA[ svg.railroad-diagram {
  background-color: hsl(30,20%,95%);
}
svg.railroad-diagram path {
  stroke-width: 3;
  stroke: black;
  fill: none;
}
svg.railroad-diagram text {
  font: bold 14px monospace;
  text-anchor: middle;
  cursor: pointer;
}
svg.railroad-diagram text.label {
  text-anchor: start;
}
svg.railroad-diagram text.comment {
  font: italic 12px monospace;
}
svg.railroad-diagram rect {
  stroke-width: 3;
  stroke: black;
  fill: hsl(120,100%,90%);
}
 ]]></style></defs>
<g transform="translate(.5 .5)">
<path d="M 20 31 v 20 m 10 -20 v 20 m -10 -10 h 20.5"></path>
<g>
<path d="M40 41h0"></path>
<path d="M752 41h0"></path>
<path d="M40 41h10"></path>
<g>
<path d="M50 41h0"></path>
<path d="M118 41h0"></path>
<rect x="50" y="30" width="68" height="22"></rect>
<text x="84" y="45">&#95;Label</text>
</g>
<path d="M118 41h10"></path>
<g>
<path d="M128 41h0"></path>
<path d="M212 41h0"></path>
<path d="M128 41a10 10 0 0 0 10 -10v0a10 10 0 0 1 10 -10"></path>
<g>
<path d="M148 21h44"></path>
</g>
<path d="M192 21a10 10 0 0 1 10 10v0a10 10 0 0 0 10 10"></path>
<path d="M128 41h20"></path>
<g>
<path d="M148 41h0"></path>
<path d="M192 41h0"></path>
<rect x="148" y="30" width="44" height="22"></rect>
<text x="170" y="45">&#95;WS</text>
</g>
<path d="M192 41h20"></path>
</g>
<path d="M212 41h10"></path>
<g>
<path d="M222 41h0"></path>
<path d="M250 41h0"></path>
<rect x="222" y="30" width="28" height="22" rx="10" ry="10"></rect>
<text x="236" y="45">:</text>
</g>
<path d="M250 41h10"></path>
<g>
<path d="M260 41h0"></path>
<path d="M344 41h0"></path>
<path d="M260 41a10 10 0 0 0 10 -10v0a10 10 0 0 1 10 -10"></path>
<g>
<path d="M280 21h44"></path>
</g>
<path d="M324 21a10 10 0 0 1 10 10v0a10 10 0 0 0 10 10"></path>
<path d="M260 41h20"></path>
<g>
<path d="M280 41h0"></path>
<path d="M324 41h0"></path>
<rect x="280" y="30" width="44" height="22"></rect>
<text x="302" y="45">&#95;WS</text>
</g>
<path d="M324 41h20"></path>
</g>
<path d="M344 41h10"></path>
<g>
<path d="M354 41h0"></path>
<path d="M526 41h0"></path>
<rect x="354" y="30" width="172" height="22"></rect>
<text x="440" y="45">ConfigStateItemList</text>
</g>
<path d="M526 41h10"></path>
<g>
<path d="M536 41h0"></path>
<path d="M620 41h0"></path>
<path d="M536 41a10 10 0 0 0 10 -10v0a10 10 0 0 1 10 -10"></path>
<g>
<path d="M556 21h44"></path>
</g>
<path d="M600 21a10 10 0 0 1 10 10v0a10 10 0 0 0 10 10"></path>
<path d="M536 41h20"></path>
<g>
<path d="M556 41h0"></path>
<path d="M600 41h0"></path>
<rect x="556" y="30" width="44" height="22"></rect>
<text x="578" y="45">&#95;WS</text>
</g>
<path d="M600 41h20"></path>
</g>
<path d="M620 41h10"></path>
<g>
<path d="M630 41h0"></path>
<path d="M658 41h0"></path>
<rect x="630" y="30" width="28" height="22" rx="10" ry="10"></rect>
<text x="644" y="45">;</text>
</g>
<path d="M658 41h10"></path>
<g>
<path d="M668 41h0"></path>
<path d="M752 41h0"></path>
<path d="M668 41a10 10 0 0 0 10 -10v0a10 10 0 0 1 10 -10"></path>
<g>
<path d="M688 21h44"></path>
</g>
<path d="M732 21a10 10 0 0 1 10 10v0a10 10 0 0 0 10 10"></path>
<path d="M668 41h20"></path>
<g>
<path d="M688 41h0"></path>
<path d="M732 41h0"></path>
<rect x="688" y="30" width="44" height="22"></rect>
<text x="710" y="45">&#95;WS</text>
</g>
<path d="M732 41h20"></path>
</g>
</g>
<path d="M 752 41 h 20 m -10 -10 v 20 m 10 -20 v 20"></path>
</g>
</svg>
