<?xml version="1.0" standalone="no"?>
<!DOCTYPE svg PUBLIC "-//W3C//DTD SVG 1.1//EN"
  "http://www.w3.org/Graphics/SVG/1.1/DTD/svg11.dtd">
<svg xmlns="http://www.w3.org/2000/svg" version="1.1" class="railroad-diagram" width="377" height="92" viewBox="0 0 377 92">
<defs><style type="text/css"><![CDATA[ svg.railroad-diagram {
  background-color: hsl(30,20%,95%);
}
svg.railroad-diagram path {
  stroke-width: 3;
  stroke: black;
  fill: none;
}
svg.railroad-diagram text {
  font: bold 14px monospace;
  text-anchor: middle;
  cursor: pointer;
}
svg.railroad-diagram text.label {
  text-anchor: start;
}
svg.railroad-diagram text.comment {
  font: italic 12px monospace;
}
svg.railroad-diagram rect {
  stroke-width: 3;
  stroke: black;
  fill: hsl(120,100%,90%);
}
 ]]></style></defs>
<g transform="translate(.5 .5)">
<path d="M 20 21 v 20 m 10 -20 v 20 m -10 -10 h 20.5"></path>
<g>
<path d="M40 31h0"></path>
<path d="M336 31h0"></path>
<path d="M40 31h20"></path>
<g>
<path d="M60 31h0"></path>
<path d="M316 31h0"></path>
<path d="M60 31h10"></path>
<g>
<path d="M70 31h0"></path>
<path d="M106 31h0"></path>
<rect x="70" y="20" width="36" height="22" rx="10" ry="10"></rect>
<text x="88" y="35">+|</text>
</g>
<path d="M106 31h10"></path>
<path d="M116 31h10"></path>
<g>
<path d="M126 31h0"></path>
<path d="M306 31h0"></path>
<rect x="126" y="20" width="180" height="22"></rect>
<text x="216" y="35">NonNegIntegerLiteral</text>
</g>
<path d="M306 31h10"></path>
</g>
<path d="M316 31h20"></path>
<path d="M40 31a10 10 0 0 1 10 10v10a10 10 0 0 0 10 10"></path>
<g>
<path d="M60 61h0"></path>
<path d="M316 61h0"></path>
<path d="M60 61h10"></path>
<g>
<path d="M70 61h0"></path>
<path d="M106 61h0"></path>
<rect x="70" y="50" width="36" height="22" rx="10" ry="10"></rect>
<text x="88" y="65">-|</text>
</g>
<path d="M106 61h10"></path>
<path d="M116 61h10"></path>
<g>
<path d="M126 61h0"></path>
<path d="M306 61h0"></path>
<rect x="126" y="50" width="180" height="22"></rect>
<text x="216" y="65">NonNegIntegerLiteral</text>
</g>
<path d="M306 61h10"></path>
</g>
<path d="M316 61a10 10 0 0 0 10 -10v-10a10 10 0 0 1 10 -10"></path>
</g>
<path d="M 336 31 h 20 m -10 -10 v 20 m 10 -20 v 20"></path>
</g>
</svg>
